<svg width="453.5433070872" height="377.952755906" xmlns="http://www.w3.org/2000/svg"><g transform="translate(56.6929133859,37.7952755906)"><text x="179.52755905535" y="-10" dominant-baseline="ideographic" style="text-anchor: middle; font-size: 14px; font-family: Arial; font-weight: normal;">Violin Plot Distribution</text><g class="y-axis" transform="translate(0, 0)" fill="none" font-size="10" font-family="sans-serif" text-anchor="end"><path class="domain" stroke="currentColor" d="M0.5,283.9645669295V0.5" style="stroke-width: 1; stroke: rgb(0, 0, 0);"></path><g class="tick" opacity="1" transform="translate(0,230.33613534824323)"><line stroke="currentColor" x2="-5" x1="0.5" style="stroke-width: 1; stroke: rgb(0, 0, 0);"></line><text fill="#000" x="-10" dy="0.32em" style="font-size: 10px; font-family: Arial;">-10</text></g><g class="tick" opacity="1" transform="translate(0,153.72409023216215)"><line stroke="currentColor" x2="-5" x1="0.5" style="stroke-width: 1; stroke: rgb(0, 0, 0);"></line><text fill="#000" x="-10" dy="0.32em" style="font-size: 10px; font-family: Arial;">0</text></g><g class="tick" opacity="1" transform="translate(0,77.11204511608108)"><line stroke="currentColor" x2="-5" x1="0.5" style="stroke-width: 1; stroke: rgb(0, 0, 0);"></line><text fill="#000" x="-10" dy="0.32em" style="font-size: 10px; font-family: Arial;">10</text></g><g class="tick" opacity="1" transform="translate(0,0.5)"><line stroke="currentColor" x2="-5" x1="0.5" style="stroke-width: 1; stroke: rgb(0, 0, 0);"></line><text fill="#000" x="-10" dy="0.32em" style="font-size: 10px; font-family: Arial;">20</text></g></g><text x="183.30708661441" y="313.4645669295" style="text-anchor: middle; font-size: 12px; font-family: Arial;">Group</text><text x="-141.73228346475" y="-40" transform="rotate(-90)" style="text-anchor: middle; font-size: 12px; font-family: Arial;">Value</text><g class="x-axis" transform="translate(3.77952755906, 283.4645669295)" fill="none" font-size="10" font-family="sans-serif" text-anchor="middle"><path class="domain" stroke="currentColor" d="M0.5,0.5H359.5551181107" style="stroke-width: 1; stroke: rgb(0, 0, 0);"></path><g class="tick" opacity="1" transform="translate(179.52755905535,0)"><line stroke="currentColor" y2="5" y1="0.5" style="stroke-width: 1; stroke: rgb(0, 0, 0);"></line><text fill="#000" y="10" dy="0.71em" dx="0em" style="font-size: 10px; font-family: Arial; text-anchor: middle;">Imported Data</text></g></g><g transform="translate(103.78214351126493,0)"><rect x="-29.5236351270426" y="107.49263673135825" width="29.5236351270426" height="39.87254735055164" style="fill: white; stroke: rgb(0, 0, 0); stroke-width: 1;"></rect><line x1="-29.5236351270426" x2="0" y1="128.54466907869337" y2="128.54466907869337" style="stroke: rgb(0, 0, 0); stroke-width: 1;"></line><line x1="-19.6824234180284" x2="0" y1="39.36939774425175" y2="39.36939774425175" style="stroke: rgb(0, 0, 0); stroke-width: 1;"></line><line x1="-19.6824234180284" x2="0" y1="255.24605235189384" y2="255.24605235189384" style="stroke: rgb(0, 0, 0); stroke-width: 1;"></line><line x1="0" x2="0" y1="107.49263673135825" y2="39.36939774425175" style="stroke: rgb(0, 0, 0); stroke-width: 1;"></line><line x1="0" x2="0" y1="147.3651840819099" y2="255.24605235189384" style="stroke: rgb(0, 0, 0); stroke-width: 1;"></line><path d="M0.0007427329591708831,260.4809533946757L0.12440777066112291,257.927218557473C0.2480728083630749,255.3734837202703,0.495402883766979,250.26601404586486,0.619067921468931,242.60480953425676C0.742732959170883,234.94360502264865,0.742732959170883,224.7286656738378,0.8665217856993634,217.06746116222973C0.990310612227844,209.4062566506216,1.237888265284805,204.2987869762162,1.7330435713987271,199.1913173018108C2.228198877512649,194.0838476274054,2.970931836683532,188.976377953,4.580186581553779,183.8689082785946C6.189441326424025,178.76143860418918,8.665217856993635,173.6539689297838,9.036584336579077,168.5464992553784C9.407950816164517,163.43902958097297,7.674907244765791,158.33155990656755,9.160373163107556,153.22409023216218C10.645839081449322,148.11662055775676,15.349814489531582,143.00915088335134,18.692112805800555,137.90168120894592C22.03441112206953,132.79421153454055,24.015032346525214,127.68674186013514,23.891243519996735,122.57927218572974C23.767454693468256,117.47180251132433,21.53925581595561,112.3643328369189,19.806212244556882,107.25686316251351C18.073168673158154,102.1493934881081,16.835280407873352,97.0419238137027,14.730870356889183,91.9344541392973C12.626460305905013,86.8269844648919,9.65552846922148,81.71951479048649,7.798696071294272,76.61204511608109C5.941863673367064,71.50457544167567,5.199130714196181,66.39710576727028,4.332608928496818,61.28963609286486C3.4660871427974542,56.18216641845947,2.47577653056961,51.07469674405405,1.9806212244556882,45.96722706964865C1.485465918341766,40.85975739524324,1.485465918341766,35.75228772083784,1.2380120541113333,30.644818046432434C0.9905581898809009,25.537348372027026,0.49565046142003594,20.42987869762162,0.2481965971896034,17.87614386041892L0.0007427329591708831,15.322409023216217L0,15.322409023216217L0,17.876143860418917C0,20.42987869762162,0,25.537348372027026,0,30.644818046432434C0,35.75228772083784,0,40.85975739524324,0,45.96722706964865C0,51.07469674405405,0,56.18216641845947,0,61.28963609286486C0,66.39710576727028,0,71.50457544167567,0,76.61204511608108C0,81.71951479048649,0,86.8269844648919,0,91.9344541392973C0,97.0419238137027,0,102.1493934881081,0,107.25686316251351C0,112.3643328369189,0,117.47180251132433,0,122.57927218572972C0,127.68674186013514,0,132.79421153454055,0,137.90168120894592C0,143.00915088335134,0,148.11662055775676,0,153.22409023216218C0,158.33155990656755,0,163.43902958097297,0,168.54649925537836C0,173.6539689297838,0,178.76143860418918,0,183.8689082785946C0,188.976377953,0,194.0838476274054,0,199.1913173018108C0,204.2987869762162,0,209.4062566506216,0,217.0674611622297C0,224.7286656738378,0,234.94360502264865,0,242.60480953425676C0,250.26601404586486,0,255.3734837202703,0,257.92721855747294L0,260.4809533946757Z" style="fill: rgb(255, 92, 92); fill-opacity: 0.3; stroke: none;"></path><path d="M0.0007427329591708831,260.4809533946757L0.12440777066112291,257.927218557473C0.2480728083630749,255.3734837202703,0.495402883766979,250.26601404586486,0.619067921468931,242.60480953425676C0.742732959170883,234.94360502264865,0.742732959170883,224.7286656738378,0.8665217856993634,217.06746116222973C0.990310612227844,209.4062566506216,1.237888265284805,204.2987869762162,1.7330435713987271,199.1913173018108C2.228198877512649,194.0838476274054,2.970931836683532,188.976377953,4.580186581553779,183.8689082785946C6.189441326424025,178.76143860418918,8.665217856993635,173.6539689297838,9.036584336579077,168.5464992553784C9.407950816164517,163.43902958097297,7.674907244765791,158.33155990656755,9.160373163107556,153.22409023216218C10.645839081449322,148.11662055775676,15.349814489531582,143.00915088335134,18.692112805800555,137.90168120894592C22.03441112206953,132.79421153454055,24.015032346525214,127.68674186013514,23.891243519996735,122.57927218572974C23.767454693468256,117.47180251132433,21.53925581595561,112.3643328369189,19.806212244556882,107.25686316251351C18.073168673158154,102.1493934881081,16.835280407873352,97.0419238137027,14.730870356889183,91.9344541392973C12.626460305905013,86.8269844648919,9.65552846922148,81.71951479048649,7.798696071294272,76.61204511608109C5.941863673367064,71.50457544167567,5.199130714196181,66.39710576727028,4.332608928496818,61.28963609286486C3.4660871427974542,56.18216641845947,2.47577653056961,51.07469674405405,1.9806212244556882,45.96722706964865C1.485465918341766,40.85975739524324,1.485465918341766,35.75228772083784,1.2380120541113333,30.644818046432434C0.9905581898809009,25.537348372027026,0.49565046142003594,20.42987869762162,0.2481965971896034,17.87614386041892L0.0007427329591708831,15.322409023216217" style="fill: none; stroke: rgb(0, 0, 0); stroke-width: 1;"></path></g><g transform="translate(183.30708661440997,0)"><rect x="-29.5236351270426" y="115.72862311144976" width="29.5236351270426" height="25.664460523548797" style="fill: white; stroke: rgb(0, 0, 0); stroke-width: 1;"></rect><line x1="-29.5236351270426" x2="0" y1="127.97620770393208" y2="127.97620770393208" style="stroke: rgb(0, 0, 0); stroke-width: 1;"></line><line x1="-19.6824234180284" x2="0" y1="34.86997233458434" y2="34.86997233458434" style="stroke: rgb(0, 0, 0); stroke-width: 1;"></line><line x1="-19.6824234180284" x2="0" y1="221.93666737632412" y2="221.93666737632412" style="stroke: rgb(0, 0, 0); stroke-width: 1;"></line><line x1="0" x2="0" y1="115.72862311144976" y2="34.86997233458434" style="stroke: rgb(0, 0, 0); stroke-width: 1;"></line><line x1="0" x2="0" y1="141.39308363499856" y2="221.93666737632412" style="stroke: rgb(0, 0, 0); stroke-width: 1;"></line><path d="M0.0007427329591708831,229.83613534824323L0.2481965971896034,227.2824005110405C0.49565046142003594,224.7286656738378,0.9905581898809009,219.62119599943242,1.2380120541113333,211.95999148782428C1.485465918341766,204.2987869762162,1.485465918341766,194.0838476274054,1.980621224455688,186.4226431157973C2.47577653056961,178.76143860418918,3.4660871427974542,173.6539689297838,5.199130714196181,168.5464992553784C6.9321742855949084,163.43902958097297,9.407950816164517,158.33155990656755,11.388572040620206,153.22409023216218C13.369193265075893,148.11662055775676,14.85465918341766,143.00915088335134,19.43484576497144,137.90168120894592C24.015032346525217,132.79421153454055,31.689939591291008,127.68674186013514,32.92782785657582,122.57927218572974C34.16571612186062,117.47180251132433,28.96658540766444,112.3643328369189,24.38639882611066,107.25686316251351C19.80621224455688,102.1493934881081,15.844969795645504,97.0419238137027,12.750249132433494,91.9344541392973C9.655528469221478,86.8269844648919,7.42732959170883,81.71951479048649,5.570497193781622,76.61204511608109C3.713664795854415,71.50457544167567,2.2281988775126487,66.39710576727028,1.7330435713987271,58.73590125566216C1.237888265284805,51.07469674405405,1.7330435713987271,40.85975739524324,1.6093785336967752,33.19855288363514C1.4857134959948228,25.537348372027026,0.743228114476997,20.42987869762162,0.37198542371808396,17.87614386041892L0.0007427329591708831,15.322409023216217L0,15.322409023216217L0,17.876143860418917C0,20.42987869762162,0,25.537348372027026,0,33.19855288363514C0,40.85975739524324,0,51.07469674405405,0,58.73590125566216C0,66.39710576727028,0,71.50457544167567,0,76.61204511608108C0,81.71951479048649,0,86.8269844648919,0,91.9344541392973C0,97.0419238137027,0,102.1493934881081,0,107.25686316251351C0,112.3643328369189,0,117.47180251132433,0,122.57927218572972C0,127.68674186013514,0,132.79421153454055,0,137.90168120894592C0,143.00915088335134,0,148.11662055775676,0,153.22409023216218C0,158.33155990656755,0,163.43902958097297,0,168.54649925537836C0,173.6539689297838,0,178.76143860418918,0,186.42264311579729C0,194.0838476274054,0,204.2987869762162,0,211.95999148782434C0,219.62119599943242,0,224.7286656738378,0,227.28240051104055L0,229.83613534824323Z" style="fill: rgb(92, 255, 92); fill-opacity: 0.3; stroke: none;"></path><path d="M0.0007427329591708831,229.83613534824323L0.2481965971896034,227.2824005110405C0.49565046142003594,224.7286656738378,0.9905581898809009,219.62119599943242,1.2380120541113333,211.95999148782428C1.485465918341766,204.2987869762162,1.485465918341766,194.0838476274054,1.980621224455688,186.4226431157973C2.47577653056961,178.76143860418918,3.4660871427974542,173.6539689297838,5.199130714196181,168.5464992553784C6.9321742855949084,163.43902958097297,9.407950816164517,158.33155990656755,11.388572040620206,153.22409023216218C13.369193265075893,148.11662055775676,14.85465918341766,143.00915088335134,19.43484576497144,137.90168120894592C24.015032346525217,132.79421153454055,31.689939591291008,127.68674186013514,32.92782785657582,122.57927218572974C34.16571612186062,117.47180251132433,28.96658540766444,112.3643328369189,24.38639882611066,107.25686316251351C19.80621224455688,102.1493934881081,15.844969795645504,97.0419238137027,12.750249132433494,91.9344541392973C9.655528469221478,86.8269844648919,7.42732959170883,81.71951479048649,5.570497193781622,76.61204511608109C3.713664795854415,71.50457544167567,2.2281988775126487,66.39710576727028,1.7330435713987271,58.73590125566216C1.237888265284805,51.07469674405405,1.7330435713987271,40.85975739524324,1.6093785336967752,33.19855288363514C1.4857134959948228,25.537348372027026,0.743228114476997,20.42987869762162,0.37198542371808396,17.87614386041892L0.0007427329591708831,15.322409023216217" style="fill: none; stroke: rgb(0, 0, 0); stroke-width: 1;"></path></g><g transform="translate(262.83202971755503,0)"><rect x="-29.5236351270426" y="113.90449031723587" width="29.5236351270426" height="27.70712917645632" style="fill: white; stroke: rgb(0, 0, 0); stroke-width: 1;"></rect><line x1="-29.5236351270426" x2="0" y1="127.69159395632582" y2="127.69159395632582" style="stroke: rgb(0, 0, 0); stroke-width: 1;"></line><line x1="-19.6824234180284" x2="0" y1="29.474185997058726" y2="29.474185997058726" style="stroke: rgb(0, 0, 0); stroke-width: 1;"></line><line x1="-19.6824234180284" x2="0" y1="204.93185784235874" y2="204.93185784235874" style="stroke: rgb(0, 0, 0); stroke-width: 1;"></line><line x1="0" x2="0" y1="113.90449031723587" y2="29.474185997058726" style="stroke: rgb(0, 0, 0); stroke-width: 1;"></line><line x1="0" x2="0" y1="141.6116194936922" y2="204.93185784235874" style="stroke: rgb(0, 0, 0); stroke-width: 1;"></line><path d="M0.0007427329591708831,214.51372632502702L0.12440777066112291,211.95999148782434C0.2480728083630749,209.4062566506216,0.495402883766979,204.2987869762162,0.866645574525892,199.1913173018108C1.237888265284805,194.0838476274054,1.7330435713987271,188.976377953,2.3519877040411297,183.8689082785946C2.970931836683532,178.76143860418918,3.7136647958544153,173.6539689297838,4.703975408082259,168.5464992553784C5.694286020310103,163.43902958097297,6.9321742855949084,158.33155990656755,9.531739642693,153.22409023216218C12.13130499979109,148.11662055775676,16.092547448702465,143.00915088335134,20.301367550670804,137.90168120894592C24.510187652639143,132.79421153454055,28.96658540766444,127.68674186013514,30.080684846420763,122.57927218572974C31.19478428517709,117.47180251132433,28.96658540766444,112.3643328369189,24.88155413222458,107.25686316251351C20.796522856784723,102.1493934881081,14.85465918341766,97.0419238137027,11.388572040620206,91.9344541392973C7.922484897822752,86.8269844648919,6.9321742855949084,81.71951479048649,6.065652499895545,76.61204511608109C5.199130714196181,71.50457544167567,4.456397755025298,66.39710576727028,4.0850312754398574,61.28963609286486C3.7136647958544153,56.18216641845947,3.7136647958544153,51.07469674405405,3.218509489740493,43.41349223244595C2.723354183626571,35.75228772083784,1.7330435713987271,25.537348372027026,1.114223227582853,17.87614386041892C0.495402883766979,10.21493934881081,0.2480728083630749,5.107469674405405,0.12440777066112291,2.5537348372027027L0.0007427329591708831,0L0,0L0,2.5537348372027027C0,5.107469674405405,0,10.21493934881081,0,17.87614386041892C0,25.537348372027026,0,35.75228772083784,0,43.41349223244595C0,51.07469674405405,0,56.18216641845947,0,61.28963609286486C0,66.39710576727028,0,71.50457544167567,0,76.61204511608108C0,81.71951479048649,0,86.8269844648919,0,91.9344541392973C0,97.0419238137027,0,102.1493934881081,0,107.25686316251351C0,112.3643328369189,0,117.47180251132433,0,122.57927218572972C0,127.68674186013514,0,132.79421153454055,0,137.90168120894592C0,143.00915088335134,0,148.11662055775676,0,153.22409023216218C0,158.33155990656755,0,163.43902958097297,0,168.54649925537836C0,173.6539689297838,0,178.76143860418918,0,183.8689082785946C0,188.976377953,0,194.0838476274054,0,199.1913173018108C0,204.2987869762162,0,209.4062566506216,0,211.95999148782428L0,214.51372632502702Z" style="fill: rgb(92, 92, 255); fill-opacity: 0.3; stroke: none;"></path><path d="M0.0007427329591708831,214.51372632502702L0.12440777066112291,211.95999148782434C0.2480728083630749,209.4062566506216,0.495402883766979,204.2987869762162,0.866645574525892,199.1913173018108C1.237888265284805,194.0838476274054,1.7330435713987271,188.976377953,2.3519877040411297,183.8689082785946C2.970931836683532,178.76143860418918,3.7136647958544153,173.6539689297838,4.703975408082259,168.5464992553784C5.694286020310103,163.43902958097297,6.9321742855949084,158.33155990656755,9.531739642693,153.22409023216218C12.13130499979109,148.11662055775676,16.092547448702465,143.00915088335134,20.301367550670804,137.90168120894592C24.510187652639143,132.79421153454055,28.96658540766444,127.68674186013514,30.080684846420763,122.57927218572974C31.19478428517709,117.47180251132433,28.96658540766444,112.3643328369189,24.88155413222458,107.25686316251351C20.796522856784723,102.1493934881081,14.85465918341766,97.0419238137027,11.388572040620206,91.9344541392973C7.922484897822752,86.8269844648919,6.9321742855949084,81.71951479048649,6.065652499895545,76.61204511608109C5.199130714196181,71.50457544167567,4.456397755025298,66.39710576727028,4.0850312754398574,61.28963609286486C3.7136647958544153,56.18216641845947,3.7136647958544153,51.07469674405405,3.218509489740493,43.41349223244595C2.723354183626571,35.75228772083784,1.7330435713987271,25.537348372027026,1.114223227582853,17.87614386041892C0.495402883766979,10.21493934881081,0.2480728083630749,5.107469674405405,0.12440777066112291,2.5537348372027027L0.0007427329591708831,0" style="fill: none; stroke: rgb(0, 0, 0); stroke-width: 1;"></path></g><line x1="103.78214351126493" x2="103.78214351126493" y1="123.3791019367416" y2="109.61038518847954" stroke="#000" stroke-width="1" stroke-linecap="round"></line><line x1="183.30708661440997" x2="183.30708661440997" y1="137.08499680800853" y2="125.52040859773608" stroke="#000" stroke-width="1" stroke-linecap="round"></line><line x1="262.83202971755503" x2="262.83202971755503" y1="132.3128325177278" y2="118.95552245173911" stroke="#000" stroke-width="1" stroke-linecap="round"></line><circle cx="72.38942406327469" cy="108.10036177924154" r="1" stroke="none" style="fill: rgb(34, 34, 34); opacity: 0.5;"></circle><circle cx="91.62274557870109" cy="116.27793147493207" r="1" stroke="none" style="fill: rgb(34, 34, 34); opacity: 0.5;"></circle><circle cx="74.64880947257792" cy="116.54530751238717" r="1" stroke="none" style="fill: rgb(34, 34, 34); opacity: 0.5;"></circle><circle cx="76.24408701099215" cy="105.72845286244768" r="1" stroke="none" style="fill: rgb(34, 34, 34); opacity: 0.5;"></circle><circle cx="98.35124809212043" cy="108.2053202810506" r="1" stroke="none" style="fill: rgb(34, 34, 34); opacity: 0.5;"></circle><circle cx="88.79895489175851" cy="115.6045115983617" r="1" stroke="none" style="fill: rgb(34, 34, 34); opacity: 0.5;"></circle><circle cx="67.99878448029294" cy="131.76275803379434" r="1" stroke="none" style="fill: rgb(34, 34, 34); opacity: 0.5;"></circle><circle cx="78.20047415540628" cy="99.48993402864522" r="1" stroke="none" style="fill: rgb(34, 34, 34); opacity: 0.5;"></circle><circle cx="99.60449136947065" cy="109.90687380307875" r="1" stroke="none" style="fill: rgb(34, 34, 34); opacity: 0.5;"></circle><circle cx="84.91541256792064" cy="97.11802511185134" r="1" stroke="none" style="fill: rgb(34, 34, 34); opacity: 0.5;"></circle><circle cx="70.27191120629703" cy="118.86665247940442" r="1" stroke="none" style="fill: rgb(34, 34, 34); opacity: 0.5;"></circle><circle cx="101.16236211298192" cy="88.2670355395905" r="1" stroke="none" style="fill: rgb(34, 34, 34); opacity: 0.5;"></circle><circle cx="68.85681069332608" cy="94.66950414994137" r="1" stroke="none" style="fill: rgb(34, 34, 34); opacity: 0.5;"></circle><circle cx="101.60785331203006" cy="134.2855926794669" r="1" stroke="none" style="fill: rgb(34, 34, 34); opacity: 0.5;"></circle><circle cx="84.94384155908327" cy="149.48848691230205" r="1" stroke="none" style="fill: rgb(34, 34, 34); opacity: 0.5;"></circle><circle cx="94.73916513024945" cy="99.30683124081777" r="1" stroke="none" style="fill: rgb(34, 34, 34); opacity: 0.5;"></circle><circle cx="71.25913864843943" cy="129.5862098320465" r="1" stroke="none" style="fill: rgb(34, 34, 34); opacity: 0.5;"></circle><circle cx="88.08897199970804" cy="126.54777612274273" r="1" stroke="none" style="fill: rgb(34, 34, 34); opacity: 0.5;"></circle><circle cx="74.94191361492824" cy="129.26520536301015" r="1" stroke="none" style="fill: rgb(34, 34, 34); opacity: 0.5;"></circle><circle cx="96.84653985559508" cy="114.65605447982465" r="1" stroke="none" style="fill: rgb(34, 34, 34); opacity: 0.5;"></circle><circle cx="101.48188080403261" cy="138.55824643559075" r="1" stroke="none" style="fill: rgb(34, 34, 34); opacity: 0.5;"></circle><circle cx="95.12325052270488" cy="90.1945945947111" r="1" stroke="none" style="fill: rgb(34, 34, 34); opacity: 0.5;"></circle><circle cx="69.06621260110396" cy="114.18029367965376" r="1" stroke="none" style="fill: rgb(34, 34, 34); opacity: 0.5;"></circle><circle cx="83.25476823881526" cy="137.2658012344825" r="1" stroke="none" style="fill: rgb(34, 34, 34); opacity: 0.5;"></circle><circle cx="67.31347437992498" cy="96.43387954896474" r="1" stroke="none" style="fill: rgb(34, 34, 34); opacity: 0.5;"></circle><circle cx="87.30643672920368" cy="111.98765694843152" r="1" stroke="none" style="fill: rgb(34, 34, 34); opacity: 0.5;"></circle><circle cx="66.09243646529393" cy="107.7226643968193" r="1" stroke="none" style="fill: rgb(34, 34, 34); opacity: 0.5;"></circle><circle cx="97.2205315154018" cy="101.41519472241234" r="1" stroke="none" style="fill: rgb(34, 34, 34); opacity: 0.5;"></circle><circle cx="103.15893607246008" cy="181.77969780827908" r="1" stroke="none" style="fill: rgb(34, 34, 34); opacity: 0.5;"></circle><circle cx="98.73450720955773" cy="125.38250691652712" r="1" stroke="none" style="fill: rgb(34, 34, 34); opacity: 0.5;"></circle><circle cx="78.47524172911629" cy="140.91100234110561" r="1" stroke="none" style="fill: rgb(34, 34, 34); opacity: 0.5;"></circle><circle cx="90.76988484089873" cy="131.42872951708827" r="1" stroke="none" style="fill: rgb(34, 34, 34); opacity: 0.5;"></circle><circle cx="83.85693878987756" cy="97.21991913185573" r="1" stroke="none" style="fill: rgb(34, 34, 34); opacity: 0.5;"></circle><circle cx="75.65979446717634" cy="96.17033411376542" r="1" stroke="none" style="fill: rgb(34, 34, 34); opacity: 0.5;"></circle><circle cx="88.65053844833119" cy="121.15965098972877" r="1" stroke="none" style="fill: rgb(34, 34, 34); opacity: 0.5;"></circle><circle cx="99.86602493110482" cy="112.9361140669686" r="1" stroke="none" style="fill: rgb(34, 34, 34); opacity: 0.5;"></circle><circle cx="80.60070760634652" cy="137.58527346261653" r="1" stroke="none" style="fill: rgb(34, 34, 34); opacity: 0.5;"></circle><circle cx="79.68971233993481" cy="100.4200042563544" r="1" stroke="none" style="fill: rgb(34, 34, 34); opacity: 0.5;"></circle><circle cx="79.65161026187091" cy="120.06026814231299" r="1" stroke="none" style="fill: rgb(34, 34, 34); opacity: 0.5;"></circle><circle cx="71.30646291174142" cy="126.62208980650533" r="1" stroke="none" style="fill: rgb(34, 34, 34); opacity: 0.5;"></circle><circle cx="66.85418442554678" cy="140.58616726981342" r="1" stroke="none" style="fill: rgb(34, 34, 34); opacity: 0.5;"></circle><circle cx="83.12400137671544" cy="100.7961693978744" r="1" stroke="none" style="fill: rgb(34, 34, 34); opacity: 0.5;"></circle><circle cx="102.65204207973021" cy="132.64839327533625" r="1" stroke="none" style="fill: rgb(34, 34, 34); opacity: 0.5;"></circle><circle cx="94.9268787865223" cy="84.81183230485523" r="1" stroke="none" style="fill: rgb(34, 34, 34); opacity: 0.5;"></circle><circle cx="98.35390911524027" cy="127.42268567796837" r="1" stroke="none" style="fill: rgb(34, 34, 34); opacity: 0.5;"></circle><circle cx="93.22427711983316" cy="107.95173441171637" r="1" stroke="none" style="fill: rgb(34, 34, 34); opacity: 0.5;"></circle><circle cx="77.16845314109568" cy="152.43498616746652" r="1" stroke="none" style="fill: rgb(34, 34, 34); opacity: 0.5;"></circle><circle cx="87.80653516384042" cy="125.47290912976412" r="1" stroke="none" style="fill: rgb(34, 34, 34); opacity: 0.5;"></circle><circle cx="84.34736698045998" cy="129.53641200272105" r="1" stroke="none" style="fill: rgb(34, 34, 34); opacity: 0.5;"></circle><circle cx="101.76445615878957" cy="122.84818046408718" r="1" stroke="none" style="fill: rgb(34, 34, 34); opacity: 0.5;"></circle><circle cx="91.97628005074029" cy="74.2071930198873" r="1" stroke="none" style="fill: rgb(34, 34, 34); opacity: 0.5;"></circle><circle cx="103.17939886446052" cy="102.52683549704666" r="1" stroke="none" style="fill: rgb(34, 34, 34); opacity: 0.5;"></circle><circle cx="83.55706705355101" cy="106.80255373497516" r="1" stroke="none" style="fill: rgb(34, 34, 34); opacity: 0.5;"></circle><circle cx="71.83826519323148" cy="105.80046818485681" r="1" stroke="none" style="fill: rgb(34, 34, 34); opacity: 0.5;"></circle><circle cx="83.69855996389899" cy="168.27835709747208" r="1" stroke="none" style="fill: rgb(34, 34, 34); opacity: 0.5;"></circle><circle cx="64.52698891754405" cy="99.40489465856638" r="1" stroke="none" style="fill: rgb(34, 34, 34); opacity: 0.5;"></circle><circle cx="77.06484390186853" cy="114.88665673562403" r="1" stroke="none" style="fill: rgb(34, 34, 34); opacity: 0.5;"></circle><circle cx="97.53286165022958" cy="77.73287933612934" r="1" stroke="none" style="fill: rgb(34, 34, 34); opacity: 0.5;"></circle><circle cx="103.13187988204065" cy="142.98489040239792" r="1" stroke="none" style="fill: rgb(34, 34, 34); opacity: 0.5;"></circle><circle cx="86.99646223359349" cy="77.93513513523578" r="1" stroke="none" style="fill: rgb(34, 34, 34); opacity: 0.5;"></circle><circle cx="101.72025457296266" cy="99.798680570463" r="1" stroke="none" style="fill: rgb(34, 34, 34); opacity: 0.5;"></circle><circle cx="86.74518085904175" cy="177.23277293063964" r="1" stroke="none" style="fill: rgb(34, 34, 34); opacity: 0.5;"></circle><circle cx="98.38512870625034" cy="70.08163439038633" r="1" stroke="none" style="fill: rgb(34, 34, 34); opacity: 0.5;"></circle><circle cx="86.2667403376998" cy="70.67920834229176" r="1" stroke="none" style="fill: rgb(34, 34, 34); opacity: 0.5;"></circle><circle cx="79.53850485304912" cy="140.54709512680424" r="1" stroke="none" style="fill: rgb(34, 34, 34); opacity: 0.5;"></circle><circle cx="70.69122454983449" cy="132.40783145367178" r="1" stroke="none" style="fill: rgb(34, 34, 34); opacity: 0.5;"></circle><circle cx="98.58066618502679" cy="39.36939774425175" r="1" stroke="none" style="fill: rgb(34, 34, 34); opacity: 0.5;"></circle><circle cx="96.92078745503197" cy="180.92317514388128" r="1" stroke="none" style="fill: rgb(34, 34, 34); opacity: 0.5;"></circle><circle cx="81.4952652870322" cy="53.07988933822561" r="1" stroke="none" style="fill: rgb(34, 34, 34); opacity: 0.5;"></circle><circle cx="91.42638214182931" cy="69.23507129185367" r="1" stroke="none" style="fill: rgb(34, 34, 34); opacity: 0.5;"></circle><circle cx="102.28350277490641" cy="145.15684188143882" r="1" stroke="none" style="fill: rgb(34, 34, 34); opacity: 0.5;"></circle><circle cx="77.38724278724837" cy="113.49768035766948" r="1" stroke="none" style="fill: rgb(34, 34, 34); opacity: 0.5;"></circle><circle cx="81.03760196298094" cy="88.60795914035707" r="1" stroke="none" style="fill: rgb(34, 34, 34); opacity: 0.5;"></circle><circle cx="80.89483975122027" cy="137.33168759328228" r="1" stroke="none" style="fill: rgb(34, 34, 34); opacity: 0.5;"></circle><circle cx="94.2382292457721" cy="147.40770376694928" r="1" stroke="none" style="fill: rgb(34, 34, 34); opacity: 0.5;"></circle><circle cx="77.868906032062" cy="199.1170036180482" r="1" stroke="none" style="fill: rgb(34, 34, 34); opacity: 0.5;"></circle><circle cx="99.70557486411505" cy="63.5719089168729" r="1" stroke="none" style="fill: rgb(34, 34, 34); opacity: 0.5;"></circle><circle cx="75.97141664895094" cy="227.59063630589088" r="1" stroke="none" style="fill: rgb(34, 34, 34); opacity: 0.5;"></circle><circle cx="66.67482821905068" cy="92.86529048745768" r="1" stroke="none" style="fill: rgb(34, 34, 34); opacity: 0.5;"></circle><circle cx="90.81431371146451" cy="92.91662055768546" r="1" stroke="none" style="fill: rgb(34, 34, 34); opacity: 0.5;"></circle><circle cx="164.218542915692" cy="119.26503511400806" r="1" stroke="none" style="fill: rgb(34, 34, 34); opacity: 0.5;"></circle><circle cx="173.57090549469532" cy="134.68397531407052" r="1" stroke="none" style="fill: rgb(34, 34, 34); opacity: 0.5;"></circle><circle cx="169.29904984411968" cy="139.9633113430197" r="1" stroke="none" style="fill: rgb(34, 34, 34); opacity: 0.5;"></circle><circle cx="164.4984632406447" cy="135.82702702720246" r="1" stroke="none" style="fill: rgb(34, 34, 34); opacity: 0.5;"></circle><circle cx="145.40207869149685" cy="131.9925941691426" r="1" stroke="none" style="fill: rgb(34, 34, 34); opacity: 0.5;"></circle><circle cx="159.86707060402452" cy="130.59902106848108" r="1" stroke="none" style="fill: rgb(34, 34, 34); opacity: 0.5;"></circle><circle cx="148.1598410778399" cy="120.3238135775123" r="1" stroke="none" style="fill: rgb(34, 34, 34); opacity: 0.5;"></circle><circle cx="156.94495050024713" cy="110.37420727828685" r="1" stroke="none" style="fill: rgb(34, 34, 34); opacity: 0.5;"></circle><circle cx="162.94464676745" cy="134.63341136429392" r="1" stroke="none" style="fill: rgb(34, 34, 34); opacity: 0.5;"></circle><circle cx="152.84960878580938" cy="125.1212598426813" r="1" stroke="none" style="fill: rgb(34, 34, 34); opacity: 0.5;"></circle><circle cx="149.51325893464494" cy="140.72866567372932" r="1" stroke="none" style="fill: rgb(34, 34, 34); opacity: 0.5;"></circle><circle cx="177.73432260330856" cy="141.294062566686" r="1" stroke="none" style="fill: rgb(34, 34, 34); opacity: 0.5;"></circle><circle cx="153.36720244227482" cy="124.87763353921217" r="1" stroke="none" style="fill: rgb(34, 34, 34); opacity: 0.5;"></circle><circle cx="165.94933154677767" cy="118.8520961908324" r="1" stroke="none" style="fill: rgb(34, 34, 34); opacity: 0.5;"></circle><circle cx="177.29274674558707" cy="151.2053628433534" r="1" stroke="none" style="fill: rgb(34, 34, 34); opacity: 0.5;"></circle><circle cx="175.7837773145776" cy="135.9181953608906" r="1" stroke="none" style="fill: rgb(34, 34, 34); opacity: 0.5;"></circle><circle cx="182.19286220228113" cy="133.23447542047427" r="1" stroke="none" style="fill: rgb(34, 34, 34); opacity: 0.5;"></circle><circle cx="148.89871672926503" cy="117.67686741875171" r="1" stroke="none" style="fill: rgb(34, 34, 34); opacity: 0.5;"></circle><circle cx="165.77804458994166" cy="158.3157267505769" r="1" stroke="none" style="fill: rgb(34, 34, 34); opacity: 0.5;"></circle><circle cx="163.58229235843447" cy="169.2666524794695" r="1" stroke="none" style="fill: rgb(34, 34, 34); opacity: 0.5;"></circle><circle cx="166.86922331345872" cy="121.55650138343006" r="1" stroke="none" style="fill: rgb(34, 34, 34); opacity: 0.5;"></circle><circle cx="180.63094507823504" cy="133.9768461376491" r="1" stroke="none" style="fill: rgb(34, 34, 34); opacity: 0.5;"></circle><circle cx="160.99184456971196" cy="136.85286231130678" r="1" stroke="none" style="fill: rgb(34, 34, 34); opacity: 0.5;"></circle><circle cx="178.5151739144992" cy="108.66192806994242" r="1" stroke="none" style="fill: rgb(34, 34, 34); opacity: 0.5;"></circle><circle cx="162.0162038522605" cy="135.91589699953713" r="1" stroke="none" style="fill: rgb(34, 34, 34); opacity: 0.5;"></circle><circle cx="173.45749460516762" cy="151.81519472247743" r="1" stroke="none" style="fill: rgb(34, 34, 34); opacity: 0.5;"></circle><circle cx="163.53136714115402" cy="139.21557778268675" r="1" stroke="none" style="fill: rgb(34, 34, 34); opacity: 0.5;"></circle><circle cx="153.43657973158244" cy="149.50763992358105" r="1" stroke="none" style="fill: rgb(34, 34, 34); opacity: 0.5;"></circle><circle cx="163.85203063033737" cy="162.06665247946026" r="1" stroke="none" style="fill: rgb(34, 34, 34); opacity: 0.5;"></circle><circle cx="169.33423629684162" cy="149.00889550987537" r="1" stroke="none" style="fill: rgb(34, 34, 34); opacity: 0.5;"></circle><circle cx="150.5105029231425" cy="109.088657161239" r="1" stroke="none" style="fill: rgb(34, 34, 34); opacity: 0.5;"></circle><circle cx="181.4324997534132" cy="114.87363268795428" r="1" stroke="none" style="fill: rgb(34, 34, 34); opacity: 0.5;"></circle><circle cx="145.8178745980939" cy="107.25073419890425" r="1" stroke="none" style="fill: rgb(34, 34, 34); opacity: 0.5;"></circle><circle cx="149.49953976587648" cy="127.26026814232227" r="1" stroke="none" style="fill: rgb(34, 34, 34); opacity: 0.5;"></circle><circle cx="179.27995204847122" cy="119.02217493099008" r="1" stroke="none" style="fill: rgb(34, 34, 34); opacity: 0.5;"></circle><circle cx="174.44926791435995" cy="165.1939561610987" r="1" stroke="none" style="fill: rgb(34, 34, 34); opacity: 0.5;"></circle><circle cx="155.8927927339336" cy="119.71857842109524" r="1" stroke="none" style="fill: rgb(34, 34, 34); opacity: 0.5;"></circle><circle cx="171.96214745811844" cy="135.98254947878814" r="1" stroke="none" style="fill: rgb(34, 34, 34); opacity: 0.5;"></circle><circle cx="158.33925804814547" cy="142.28925303274391" r="1" stroke="none" style="fill: rgb(34, 34, 34); opacity: 0.5;"></circle><circle cx="182.3357213533393" cy="116.01361991928158" r="1" stroke="none" style="fill: rgb(34, 34, 34); opacity: 0.5;"></circle><circle cx="174.02855434675084" cy="164.44162587805877" r="1" stroke="none" style="fill: rgb(34, 34, 34); opacity: 0.5;"></circle><circle cx="174.75716203440942" cy="121.26537561198892" r="1" stroke="none" style="fill: rgb(34, 34, 34); opacity: 0.5;"></circle><circle cx="177.31456011582083" cy="135.3826771655292" r="1" stroke="none" style="fill: rgb(34, 34, 34); opacity: 0.5;"></circle><circle cx="151.80431999747643" cy="135.51215152177537" r="1" stroke="none" style="fill: rgb(34, 34, 34); opacity: 0.5;"></circle><circle cx="159.77278873311866" cy="129.44984039173988" r="1" stroke="none" style="fill: rgb(34, 34, 34); opacity: 0.5;"></circle><circle cx="157.14447677549836" cy="191.15931049184087" r="1" stroke="none" style="fill: rgb(34, 34, 34); opacity: 0.5;"></circle><circle cx="156.036942006351" cy="130.07193019808247" r="1" stroke="none" style="fill: rgb(34, 34, 34); opacity: 0.5;"></circle><circle cx="161.04786722931485" cy="141.20366035344907" r="1" stroke="none" style="fill: rgb(34, 34, 34); opacity: 0.5;"></circle><circle cx="169.29764035627932" cy="197.9088316665676" r="1" stroke="none" style="fill: rgb(34, 34, 34); opacity: 0.5;"></circle><circle cx="177.19039203122017" cy="221.93666737632412" r="1" stroke="none" style="fill: rgb(34, 34, 34); opacity: 0.5;"></circle><circle cx="148.16559871222356" cy="166.7124068952994" r="1" stroke="none" style="fill: rgb(34, 34, 34); opacity: 0.5;"></circle><circle cx="177.98906032461534" cy="124.52445201122704" r="1" stroke="none" style="fill: rgb(34, 34, 34); opacity: 0.5;"></circle><circle cx="151.54579613240784" cy="144.69333900848656" r="1" stroke="none" style="fill: rgb(34, 34, 34); opacity: 0.5;"></circle><circle cx="145.5429697723145" cy="93.51879123229784" r="1" stroke="none" style="fill: rgb(34, 34, 34); opacity: 0.5;"></circle><circle cx="168.04982626089463" cy="130.7261970633738" r="1" stroke="none" style="fill: rgb(34, 34, 34); opacity: 0.5;"></circle><circle cx="151.61933326588203" cy="103.01562034488727" r="1" stroke="none" style="fill: rgb(34, 34, 34); opacity: 0.5;"></circle><circle cx="171.7260874525482" cy="98.94215790606523" r="1" stroke="none" style="fill: rgb(34, 34, 34); opacity: 0.5;"></circle><circle cx="145.78759619158413" cy="128.3841668441752" r="1" stroke="none" style="fill: rgb(34, 34, 34); opacity: 0.5;"></circle><circle cx="147.780149727383" cy="125.6920195787961" r="1" stroke="none" style="fill: rgb(34, 34, 34); opacity: 0.5;"></circle><circle cx="165.06463555930503" cy="81.70827835720279" r="1" stroke="none" style="fill: rgb(34, 34, 34); opacity: 0.5;"></circle><circle cx="144.6754558495432" cy="117.82243030447225" r="1" stroke="none" style="fill: rgb(34, 34, 34); opacity: 0.5;"></circle><circle cx="149.59899028560267" cy="156.5291338584699" r="1" stroke="none" style="fill: rgb(34, 34, 34); opacity: 0.5;"></circle><circle cx="178.45837107662433" cy="125.66597148345663" r="1" stroke="none" style="fill: rgb(34, 34, 34); opacity: 0.5;"></circle><circle cx="147.60100385068358" cy="91.80497978305114" r="1" stroke="none" style="fill: rgb(34, 34, 34); opacity: 0.5;"></circle><circle cx="181.2225669472689" cy="42.86673760380087" r="1" stroke="none" style="fill: rgb(34, 34, 34); opacity: 0.5;"></circle><circle cx="168.71403227602127" cy="127.56824856368893" r="1" stroke="none" style="fill: rgb(34, 34, 34); opacity: 0.5;"></circle><circle cx="165.16312141395662" cy="133.12032347325132" r="1" stroke="none" style="fill: rgb(34, 34, 34); opacity: 0.5;"></circle><circle cx="181.85290714973857" cy="147.98459246667335" r="1" stroke="none" style="fill: rgb(34, 34, 34); opacity: 0.5;"></circle><circle cx="151.8784037702802" cy="132.62157905954564" r="1" stroke="none" style="fill: rgb(34, 34, 34); opacity: 0.5;"></circle><circle cx="175.929524082245" cy="136.02238774224847" r="1" stroke="none" style="fill: rgb(34, 34, 34); opacity: 0.5;"></circle><circle cx="170.6021833802204" cy="141.69014683993612" r="1" stroke="none" style="fill: rgb(34, 34, 34); opacity: 0.5;"></circle><circle cx="168.99227673392113" cy="122.99910619296584" r="1" stroke="none" style="fill: rgb(34, 34, 34); opacity: 0.5;"></circle><circle cx="163.0918565148938" cy="92.02715471388775" r="1" stroke="none" style="fill: rgb(34, 34, 34); opacity: 0.5;"></circle><circle cx="162.72560974024984" cy="113.42643115571153" r="1" stroke="none" style="fill: rgb(34, 34, 34); opacity: 0.5;"></circle><circle cx="162.18435790625313" cy="179.9877420730139" r="1" stroke="none" style="fill: rgb(34, 34, 34); opacity: 0.5;"></circle><circle cx="161.72377405303382" cy="70.84775484154713" r="1" stroke="none" style="fill: rgb(34, 34, 34); opacity: 0.5;"></circle><circle cx="150.78365349705166" cy="125.25916152389026" r="1" stroke="none" style="fill: rgb(34, 34, 34); opacity: 0.5;"></circle><circle cx="170.64840903278304" cy="94.15773568856595" r="1" stroke="none" style="fill: rgb(34, 34, 34); opacity: 0.5;"></circle><circle cx="157.8668306308149" cy="122.90947010018002" r="1" stroke="none" style="fill: rgb(34, 34, 34); opacity: 0.5;"></circle><circle cx="148.5215953434972" cy="143.24230687398793" r="1" stroke="none" style="fill: rgb(34, 34, 34); opacity: 0.5;"></circle><circle cx="254.04944121538549" cy="123.73534794653138" r="1" stroke="none" style="fill: rgb(34, 34, 34); opacity: 0.5;"></circle><circle cx="249.52040432562703" cy="121.51742924042082" r="1" stroke="none" style="fill: rgb(34, 34, 34); opacity: 0.5;"></circle><circle cx="228.19885981258435" cy="114.28142157920698" r="1" stroke="none" style="fill: rgb(34, 34, 34); opacity: 0.5;"></circle><circle cx="260.16502164384025" cy="130.5951904662253" r="1" stroke="none" style="fill: rgb(34, 34, 34); opacity: 0.5;"></circle><circle cx="237.09896987850178" cy="123.99582889992607" r="1" stroke="none" style="fill: rgb(34, 34, 34); opacity: 0.5;"></circle><circle cx="234.9668681190355" cy="148.72619706339705" r="1" stroke="none" style="fill: rgb(34, 34, 34); opacity: 0.5;"></circle><circle cx="254.00202345957373" cy="136.2131517345875" r="1" stroke="none" style="fill: rgb(34, 34, 34); opacity: 0.5;"></circle><circle cx="248.06295766918578" cy="110.24779740384531" r="1" stroke="none" style="fill: rgb(34, 34, 34); opacity: 0.5;"></circle><circle cx="260.543527994025" cy="126.28346456709225" r="1" stroke="none" style="fill: rgb(34, 34, 34); opacity: 0.5;"></circle><circle cx="241.3920102369785" cy="140.87422855944988" r="1" stroke="none" style="fill: rgb(34, 34, 34); opacity: 0.5;"></circle><circle cx="224.645970924548" cy="135.1658650778507" r="1" stroke="none" style="fill: rgb(34, 34, 34); opacity: 0.5;"></circle><circle cx="257.56240142933086" cy="126.24822302633886" r="1" stroke="none" style="fill: rgb(34, 34, 34); opacity: 0.5;"></circle><circle cx="226.30358704362737" cy="128.3351351353009" r="1" stroke="none" style="fill: rgb(34, 34, 34); opacity: 0.5;"></circle><circle cx="253.3633587874728" cy="131.91368376267303" r="1" stroke="none" style="fill: rgb(34, 34, 34); opacity: 0.5;"></circle><circle cx="225.6933029163893" cy="125.6077463291684" r="1" stroke="none" style="fill: rgb(34, 34, 34); opacity: 0.5;"></circle><circle cx="242.0563147558121" cy="120.48546499270725" r="1" stroke="none" style="fill: rgb(34, 34, 34); opacity: 0.5;"></circle><circle cx="237.0498167698609" cy="144.1915301129762" r="1" stroke="none" style="fill: rgb(34, 34, 34); opacity: 0.5;"></circle><circle cx="239.83435454389115" cy="121.31747180266788" r="1" stroke="none" style="fill: rgb(34, 34, 34); opacity: 0.5;"></circle><circle cx="236.89410138685142" cy="120.60421366263716" r="1" stroke="none" style="fill: rgb(34, 34, 34); opacity: 0.5;"></circle><circle cx="235.12847602624095" cy="139.2240051076495" r="1" stroke="none" style="fill: rgb(34, 34, 34); opacity: 0.5;"></circle><circle cx="250.92055302016536" cy="125.73568844451226" r="1" stroke="none" style="fill: rgb(34, 34, 34); opacity: 0.5;"></circle><circle cx="253.18933713168315" cy="125.61847201548467" r="1" stroke="none" style="fill: rgb(34, 34, 34); opacity: 0.5;"></circle><circle cx="240.21759352783224" cy="114.09908491183072" r="1" stroke="none" style="fill: rgb(34, 34, 34); opacity: 0.5;"></circle><circle cx="253.55636477943517" cy="146.11755692719447" r="1" stroke="none" style="fill: rgb(34, 34, 34); opacity: 0.5;"></circle><circle cx="241.3318163900576" cy="128.54735050027244" r="1" stroke="none" style="fill: rgb(34, 34, 34); opacity: 0.5;"></circle><circle cx="239.33363189404136" cy="141.79204085994053" r="1" stroke="none" style="fill: rgb(34, 34, 34); opacity: 0.5;"></circle><circle cx="233.92364554555456" cy="130.55918280502073" r="1" stroke="none" style="fill: rgb(34, 34, 34); opacity: 0.5;"></circle><circle cx="224.738578889602" cy="121.44464779756056" r="1" stroke="none" style="fill: rgb(34, 34, 34); opacity: 0.5;"></circle><circle cx="245.36631704318603" cy="150.80161736559168" r="1" stroke="none" style="fill: rgb(34, 34, 34); opacity: 0.5;"></circle><circle cx="234.44537223118434" cy="134.95824643558612" r="1" stroke="none" style="fill: rgb(34, 34, 34); opacity: 0.5;"></circle><circle cx="239.4725383149281" cy="119.76761012996955" r="1" stroke="none" style="fill: rgb(34, 34, 34); opacity: 0.5;"></circle><circle cx="255.154033052417" cy="123.96441796142848" r="1" stroke="none" style="fill: rgb(34, 34, 34); opacity: 0.5;"></circle><circle cx="259.9584148068175" cy="91.5988933816889" r="1" stroke="none" style="fill: rgb(34, 34, 34); opacity: 0.5;"></circle><circle cx="255.39616568599735" cy="118.89116833384156" r="1" stroke="none" style="fill: rgb(34, 34, 34); opacity: 0.5;"></circle><circle cx="237.35696650084262" cy="141.55147903827603" r="1" stroke="none" style="fill: rgb(34, 34, 34); opacity: 0.5;"></circle><circle cx="248.05155434052142" cy="166.36382209002122" r="1" stroke="none" style="fill: rgb(34, 34, 34); opacity: 0.5;"></circle><circle cx="235.34732772721844" cy="117.42864439257559" r="1" stroke="none" style="fill: rgb(34, 34, 34); opacity: 0.5;"></circle><circle cx="249.7806732099006" cy="165.7179825496927" r="1" stroke="none" style="fill: rgb(34, 34, 34); opacity: 0.5;"></circle><circle cx="236.4176809551787" cy="106.87456905738426" r="1" stroke="none" style="fill: rgb(34, 34, 34); opacity: 0.5;"></circle><circle cx="246.79467993677454" cy="115.10346882330252" r="1" stroke="none" style="fill: rgb(34, 34, 34); opacity: 0.5;"></circle><circle cx="233.71336842897676" cy="122.73479463731536" r="1" stroke="none" style="fill: rgb(34, 34, 34); opacity: 0.5;"></circle><circle cx="231.42772799980312" cy="143.0438816771373" r="1" stroke="none" style="fill: rgb(34, 34, 34); opacity: 0.5;"></circle><circle cx="250.9921116956239" cy="85.56186422654166" r="1" stroke="none" style="fill: rgb(34, 34, 34); opacity: 0.5;"></circle><circle cx="247.27591031142882" cy="139.67218557157858" r="1" stroke="none" style="fill: rgb(34, 34, 34); opacity: 0.5;"></circle><circle cx="258.392410686459" cy="130.59442434577412" r="1" stroke="none" style="fill: rgb(34, 34, 34); opacity: 0.5;"></circle><circle cx="225.0301161285862" cy="96.75028729529414" r="1" stroke="none" style="fill: rgb(34, 34, 34); opacity: 0.5;"></circle><circle cx="247.42185352089393" cy="190.378633752108" r="1" stroke="none" style="fill: rgb(34, 34, 34); opacity: 0.5;"></circle><circle cx="244.9881891730701" cy="131.05333049601947" r="1" stroke="none" style="fill: rgb(34, 34, 34); opacity: 0.5;"></circle><circle cx="255.64561158682923" cy="182.61323685914203" r="1" stroke="none" style="fill: rgb(34, 34, 34); opacity: 0.5;"></circle><circle cx="244.38282592933885" cy="131.4823579486695" r="1" stroke="none" style="fill: rgb(34, 34, 34); opacity: 0.5;"></circle><circle cx="243.92870376278734" cy="131.78420940642687" r="1" stroke="none" style="fill: rgb(34, 34, 34); opacity: 0.5;"></circle><circle cx="235.45255451141657" cy="149.2724409450747" r="1" stroke="none" style="fill: rgb(34, 34, 34); opacity: 0.5;"></circle><circle cx="246.80805852486102" cy="165.88423068759457" r="1" stroke="none" style="fill: rgb(34, 34, 34); opacity: 0.5;"></circle><circle cx="228.64840465859214" cy="136.35871462030806" r="1" stroke="none" style="fill: rgb(34, 34, 34); opacity: 0.5;"></circle><circle cx="239.57168117625702" cy="196.57884656335244" r="1" stroke="none" style="fill: rgb(34, 34, 34); opacity: 0.5;"></circle><circle cx="247.85431172216298" cy="133.13947648453035" r="1" stroke="none" style="fill: rgb(34, 34, 34); opacity: 0.5;"></circle><circle cx="251.93530047208975" cy="53.587827197345256" r="1" stroke="none" style="fill: rgb(34, 34, 34); opacity: 0.5;"></circle><circle cx="233.42149416742066" cy="91.75364971282333" r="1" stroke="none" style="fill: rgb(34, 34, 34); opacity: 0.5;"></circle><circle cx="253.76543105748246" cy="115.87801659942612" r="1" stroke="none" style="fill: rgb(34, 34, 34); opacity: 0.5;"></circle><circle cx="224.13722606800505" cy="136.1472653757877" r="1" stroke="none" style="fill: rgb(34, 34, 34); opacity: 0.5;"></circle><circle cx="241.86101116343508" cy="159.8387742074846" r="1" stroke="none" style="fill: rgb(34, 34, 34); opacity: 0.5;"></circle><circle cx="251.9603474385231" cy="71.86516280068871" r="1" stroke="none" style="fill: rgb(34, 34, 34); opacity: 0.5;"></circle><circle cx="248.88469486516178" cy="52.72670781024048" r="1" stroke="none" style="fill: rgb(34, 34, 34); opacity: 0.5;"></circle><circle cx="234.00626446527195" cy="98.53611406694998" r="1" stroke="none" style="fill: rgb(34, 34, 34); opacity: 0.5;"></circle><circle cx="252.53897330416237" cy="79.03911470535854" r="1" stroke="none" style="fill: rgb(34, 34, 34); opacity: 0.5;"></circle><circle cx="224.28285549600452" cy="80.76365184092151" r="1" stroke="none" style="fill: rgb(34, 34, 34); opacity: 0.5;"></circle><circle cx="229.00031921047383" cy="148.62813364564846" r="1" stroke="none" style="fill: rgb(34, 34, 34); opacity: 0.5;"></circle><circle cx="233.2237020177929" cy="94.93228346468955" r="1" stroke="none" style="fill: rgb(34, 34, 34); opacity: 0.5;"></circle><circle cx="235.25963503516473" cy="169.04524366908407" r="1" stroke="none" style="fill: rgb(34, 34, 34); opacity: 0.5;"></circle><circle cx="254.0993579313793" cy="57.4176633326981" r="1" stroke="none" style="fill: rgb(34, 34, 34); opacity: 0.5;"></circle><circle cx="233.7084330739878" cy="133.2383060227301" r="1" stroke="none" style="fill: rgb(34, 34, 34); opacity: 0.5;"></circle><circle cx="262.67858213388297" cy="88.67307937870575" r="1" stroke="none" style="fill: rgb(34, 34, 34); opacity: 0.5;"></circle><circle cx="230.57217092398474" cy="147.79382847433433" r="1" stroke="none" style="fill: rgb(34, 34, 34); opacity: 0.5;"></circle><circle cx="259.58786203212077" cy="148.02749521193834" r="1" stroke="none" style="fill: rgb(34, 34, 34); opacity: 0.5;"></circle><circle cx="259.56404656028604" cy="180.86418386914193" r="1" stroke="none" style="fill: rgb(34, 34, 34); opacity: 0.5;"></circle><circle cx="260.17791980770653" cy="103.45307512250007" r="1" stroke="none" style="fill: rgb(34, 34, 34); opacity: 0.5;"></circle><circle cx="240.21872581005752" cy="167.35211747201868" r="1" stroke="none" style="fill: rgb(34, 34, 34); opacity: 0.5;"></circle><circle cx="224.78381783550577" cy="29.474185997058726" r="1" stroke="none" style="fill: rgb(34, 34, 34); opacity: 0.5;"></circle><circle cx="255.92186802731513" cy="98.212045116109" r="1" stroke="none" style="fill: rgb(34, 34, 34); opacity: 0.5;"></circle><circle cx="248.9708476699478" cy="120.08401787629896" r="1" stroke="none" style="fill: rgb(34, 34, 34); opacity: 0.5;"></circle><circle cx="90.52788313368703" cy="138.9811449246315" r="1" stroke="none" style="fill: rgb(34, 34, 34); opacity: 0.5;"></circle><circle cx="83.68972955766921" cy="137.62051500336995" r="1" stroke="none" style="fill: rgb(34, 34, 34); opacity: 0.5;"></circle><circle cx="98.14304547419447" cy="147.35101085356337" r="1" stroke="none" style="fill: rgb(34, 34, 34); opacity: 0.5;"></circle><circle cx="93.48652839542208" cy="126.51559906379399" r="1" stroke="none" style="fill: rgb(34, 34, 34); opacity: 0.5;"></circle><circle cx="97.52379623555287" cy="142.5259842521526" r="1" stroke="none" style="fill: rgb(34, 34, 34); opacity: 0.5;"></circle><circle cx="69.45579747786464" cy="134.30474569074593" r="1" stroke="none" style="fill: rgb(34, 34, 34); opacity: 0.5;"></circle><circle cx="74.66876241248482" cy="132.5871036392434" r="1" stroke="none" style="fill: rgb(34, 34, 34); opacity: 0.5;"></circle><circle cx="72.08359083098074" cy="140.27512236664214" r="1" stroke="none" style="fill: rgb(34, 34, 34); opacity: 0.5;"></circle><circle cx="103.1606882705906" cy="125.1756543947137" r="1" stroke="none" style="fill: rgb(34, 34, 34); opacity: 0.5;"></circle><circle cx="66.4174602333845" cy="132.13662481396082" r="1" stroke="none" style="fill: rgb(34, 34, 34); opacity: 0.5;"></circle><circle cx="66.56919819704751" cy="138.58199616957674" r="1" stroke="none" style="fill: rgb(34, 34, 34); opacity: 0.5;"></circle><circle cx="66.33170791958844" cy="139.050095765236" r="1" stroke="none" style="fill: rgb(34, 34, 34); opacity: 0.5;"></circle><circle cx="95.71570717245132" cy="122.29887210060487" r="1" stroke="none" style="fill: rgb(34, 34, 34); opacity: 0.5;"></circle><circle cx="81.57271884885495" cy="112.13705043640786" r="1" stroke="none" style="fill: rgb(34, 34, 34); opacity: 0.5;"></circle><circle cx="100.19421096923303" cy="85.26460949149127" r="1" stroke="none" style="fill: rgb(34, 34, 34); opacity: 0.5;"></circle><circle cx="95.03648031355881" cy="129.15411789759182" r="1" stroke="none" style="fill: rgb(34, 34, 34); opacity: 0.5;"></circle><circle cx="75.89655582821041" cy="146.87141945113672" r="1" stroke="none" style="fill: rgb(34, 34, 34); opacity: 0.5;"></circle><circle cx="100.82754344529967" cy="141.51470525662032" r="1" stroke="none" style="fill: rgb(34, 34, 34); opacity: 0.5;"></circle><circle cx="92.10507617664932" cy="157.81238561416427" r="1" stroke="none" style="fill: rgb(34, 34, 34); opacity: 0.5;"></circle><circle cx="91.70434612090932" cy="129.4100021282795" r="1" stroke="none" style="fill: rgb(34, 34, 34); opacity: 0.5;"></circle><circle cx="97.6022064314142" cy="121.45537348387681" r="1" stroke="none" style="fill: rgb(34, 34, 34); opacity: 0.5;"></circle><circle cx="65.83611370148316" cy="171.1735262824088" r="1" stroke="none" style="fill: rgb(34, 34, 34); opacity: 0.5;"></circle><circle cx="80.126137726037" cy="170.60583102809866" r="1" stroke="none" style="fill: rgb(34, 34, 34); opacity: 0.5;"></circle><circle cx="71.90006599042721" cy="152.3844222176899" r="1" stroke="none" style="fill: rgb(34, 34, 34); opacity: 0.5;"></circle><circle cx="65.70850601802661" cy="136.20472440962476" r="1" stroke="none" style="fill: rgb(34, 34, 34); opacity: 0.5;"></circle><circle cx="65.83586386257058" cy="112.41055543747228" r="1" stroke="none" style="fill: rgb(34, 34, 34); opacity: 0.5;"></circle><circle cx="81.3586576346986" cy="144.0651202385347" r="1" stroke="none" style="fill: rgb(34, 34, 34); opacity: 0.5;"></circle><circle cx="85.42763804151812" cy="170.41430091530844" r="1" stroke="none" style="fill: rgb(34, 34, 34); opacity: 0.5;"></circle><circle cx="91.53197750279833" cy="112.48103851897908" r="1" stroke="none" style="fill: rgb(34, 34, 34); opacity: 0.5;"></circle><circle cx="73.97535368187026" cy="131.60034049814828" r="1" stroke="none" style="fill: rgb(34, 34, 34); opacity: 0.5;"></circle><circle cx="103.27862368794536" cy="124.78186848281709" r="1" stroke="none" style="fill: rgb(34, 34, 34); opacity: 0.5;"></circle><circle cx="93.05090152281942" cy="169.05826771675382" r="1" stroke="none" style="fill: rgb(34, 34, 34); opacity: 0.5;"></circle><circle cx="75.71801367404728" cy="125.58399659518241" r="1" stroke="none" style="fill: rgb(34, 34, 34); opacity: 0.5;"></circle><circle cx="103.75661100444836" cy="98.43192168559213" r="1" stroke="none" style="fill: rgb(34, 34, 34); opacity: 0.5;"></circle><circle cx="93.03188021230967" cy="151.04830815086544" r="1" stroke="none" style="fill: rgb(34, 34, 34); opacity: 0.5;"></circle><circle cx="83.75940505646999" cy="175.81928069824798" r="1" stroke="none" style="fill: rgb(34, 34, 34); opacity: 0.5;"></circle><circle cx="96.9168171571976" cy="127.93522025979497" r="1" stroke="none" style="fill: rgb(34, 34, 34); opacity: 0.5;"></circle><circle cx="67.88763605114265" cy="181.80268142181387" r="1" stroke="none" style="fill: rgb(34, 34, 34); opacity: 0.5;"></circle><circle cx="86.90393527106528" cy="110.74347733574636" r="1" stroke="none" style="fill: rgb(34, 34, 34); opacity: 0.5;"></circle><circle cx="74.43684698903661" cy="142.09925516085602" r="1" stroke="none" style="fill: rgb(34, 34, 34); opacity: 0.5;"></circle><circle cx="78.13375738554205" cy="176.59382847437152" r="1" stroke="none" style="fill: rgb(34, 34, 34); opacity: 0.5;"></circle><circle cx="87.9112473554982" cy="151.80600127706353" r="1" stroke="none" style="fill: rgb(34, 34, 34); opacity: 0.5;"></circle><circle cx="88.87699991303607" cy="178.55203234753856" r="1" stroke="none" style="fill: rgb(34, 34, 34); opacity: 0.5;"></circle><circle cx="102.09122935565092" cy="131.7681208769525" r="1" stroke="none" style="fill: rgb(34, 34, 34); opacity: 0.5;"></circle><circle cx="86.22507021735447" cy="100.50427750598213" r="1" stroke="none" style="fill: rgb(34, 34, 34); opacity: 0.5;"></circle><circle cx="66.30119348822357" cy="110.47533517784007" r="1" stroke="none" style="fill: rgb(34, 34, 34); opacity: 0.5;"></circle><circle cx="88.57135197026183" cy="153.39723345412452" r="1" stroke="none" style="fill: rgb(34, 34, 34); opacity: 0.5;"></circle><circle cx="97.27473156732604" cy="157.7464992553644" r="1" stroke="none" style="fill: rgb(34, 34, 34); opacity: 0.5;"></circle><circle cx="102.53818037721457" cy="125.73032560135414" r="1" stroke="none" style="fill: rgb(34, 34, 34); opacity: 0.5;"></circle><circle cx="74.22874341228862" cy="118.00629921275085" r="1" stroke="none" style="fill: rgb(34, 34, 34); opacity: 0.5;"></circle><circle cx="70.09627283539572" cy="153.04098744433472" r="1" stroke="none" style="fill: rgb(34, 34, 34); opacity: 0.5;"></circle><circle cx="80.73628954498926" cy="61.11266226864671" r="1" stroke="none" style="fill: rgb(34, 34, 34); opacity: 0.5;"></circle><circle cx="74.54265833215604" cy="196.63937007899415" r="1" stroke="none" style="fill: rgb(34, 34, 34); opacity: 0.5;"></circle><circle cx="74.0948758761491" cy="134.51925941707097" r="1" stroke="none" style="fill: rgb(34, 34, 34); opacity: 0.5;"></circle><circle cx="89.04091671633678" cy="185.65779953205507" r="1" stroke="none" style="fill: rgb(34, 34, 34); opacity: 0.5;"></circle><circle cx="89.3401409156865" cy="200.9855713984294" r="1" stroke="none" style="fill: rgb(34, 34, 34); opacity: 0.5;"></circle><circle cx="74.56265470305051" cy="212.44290274553939" r="1" stroke="none" style="fill: rgb(34, 34, 34); opacity: 0.5;"></circle><circle cx="79.23533466490738" cy="76.61281123653222" r="1" stroke="none" style="fill: rgb(34, 34, 34); opacity: 0.5;"></circle><circle cx="89.42446452738687" cy="178.37046180061344" r="1" stroke="none" style="fill: rgb(34, 34, 34); opacity: 0.5;"></circle><circle cx="83.21519547369832" cy="187.8741859972633" r="1" stroke="none" style="fill: rgb(34, 34, 34); opacity: 0.5;"></circle><circle cx="77.46212580971928" cy="255.24605235189384" r="1" stroke="none" style="fill: rgb(34, 34, 34); opacity: 0.5;"></circle><circle cx="67.36220187568483" cy="145.44413705062414" r="1" stroke="none" style="fill: rgb(34, 34, 34); opacity: 0.5;"></circle><circle cx="85.45151836931795" cy="182.80629921283455" r="1" stroke="none" style="fill: rgb(34, 34, 34); opacity: 0.5;"></circle><circle cx="73.12749225957224" cy="123.32394126425804" r="1" stroke="none" style="fill: rgb(34, 34, 34); opacity: 0.5;"></circle><circle cx="85.83914307062352" cy="174.15373483742434" r="1" stroke="none" style="fill: rgb(34, 34, 34); opacity: 0.5;"></circle><circle cx="88.94960375132027" cy="164.81855714002987" r="1" stroke="none" style="fill: rgb(34, 34, 34); opacity: 0.5;"></circle><circle cx="84.97024788148755" cy="41.95275590556601" r="1" stroke="none" style="fill: rgb(34, 34, 34); opacity: 0.5;"></circle><circle cx="100.11369741824394" cy="110.79021068326715" r="1" stroke="none" style="fill: rgb(34, 34, 34); opacity: 0.5;"></circle><circle cx="88.27669005636639" cy="100.45677803801017" r="1" stroke="none" style="fill: rgb(34, 34, 34); opacity: 0.5;"></circle><circle cx="69.79123331745768" cy="81.4929985104266" r="1" stroke="none" style="fill: rgb(34, 34, 34); opacity: 0.5;"></circle><circle cx="68.20888544264037" cy="167.69380719323638" r="1" stroke="none" style="fill: rgb(34, 34, 34); opacity: 0.5;"></circle><circle cx="101.82659567259806" cy="156.4601830178654" r="1" stroke="none" style="fill: rgb(34, 34, 34); opacity: 0.5;"></circle><circle cx="84.34651348650542" cy="71.79161523737726" r="1" stroke="none" style="fill: rgb(34, 34, 34); opacity: 0.5;"></circle><circle cx="96.05790948347111" cy="169.91402426070044" r="1" stroke="none" style="fill: rgb(34, 34, 34); opacity: 0.5;"></circle><circle cx="74.2999635241872" cy="150.54343477355047" r="1" stroke="none" style="fill: rgb(34, 34, 34); opacity: 0.5;"></circle><circle cx="75.9718286769886" cy="144.5493083636683" r="1" stroke="none" style="fill: rgb(34, 34, 34); opacity: 0.5;"></circle><circle cx="84.46653809404509" cy="123.03971057687735" r="1" stroke="none" style="fill: rgb(34, 34, 34); opacity: 0.5;"></circle><circle cx="70.71925079640684" cy="161.40012768695036" r="1" stroke="none" style="fill: rgb(34, 34, 34); opacity: 0.5;"></circle><circle cx="83.7077090022328" cy="184.95833156014524" r="1" stroke="none" style="fill: rgb(34, 34, 34); opacity: 0.5;"></circle><circle cx="72.5720073348109" cy="143.99463715702788" r="1" stroke="none" style="fill: rgb(34, 34, 34); opacity: 0.5;"></circle><circle cx="177.71308370803132" cy="141.1163226220167" r="1" stroke="none" style="fill: rgb(34, 34, 34); opacity: 0.5;"></circle><circle cx="146.47733775726562" cy="135.72283464584459" r="1" stroke="none" style="fill: rgb(34, 34, 34); opacity: 0.5;"></circle><circle cx="177.03617907536685" cy="118.82911257729758" r="1" stroke="none" style="fill: rgb(34, 34, 34); opacity: 0.5;"></circle><circle cx="154.338383889202" cy="135.87759097697906" r="1" stroke="none" style="fill: rgb(34, 34, 34); opacity: 0.5;"></circle><circle cx="167.91666467339365" cy="126.25052138769232" r="1" stroke="none" style="fill: rgb(34, 34, 34); opacity: 0.5;"></circle><circle cx="156.25696204734876" cy="125.00940625681183" r="1" stroke="none" style="fill: rgb(34, 34, 34); opacity: 0.5;"></circle><circle cx="172.076569632577" cy="131.28699723362354" r="1" stroke="none" style="fill: rgb(34, 34, 34); opacity: 0.5;"></circle><circle cx="147.26350396692874" cy="113.97190891693802" r="1" stroke="none" style="fill: rgb(34, 34, 34); opacity: 0.5;"></circle><circle cx="178.0546044132556" cy="119.00761864241802" r="1" stroke="none" style="fill: rgb(34, 34, 34); opacity: 0.5;"></circle><circle cx="182.3286172543646" cy="105.50321344980644" r="1" stroke="none" style="fill: rgb(34, 34, 34); opacity: 0.5;"></circle><circle cx="160.6166254627865" cy="121.58944456282995" r="1" stroke="none" style="fill: rgb(34, 34, 34); opacity: 0.5;"></circle><circle cx="149.10575955288374" cy="127.49699936173097" r="1" stroke="none" style="fill: rgb(34, 34, 34); opacity: 0.5;"></circle><circle cx="156.66683072056824" cy="138.7781230050739" r="1" stroke="none" style="fill: rgb(34, 34, 34); opacity: 0.5;"></circle><circle cx="158.76142071089433" cy="104.30423494373974" r="1" stroke="none" style="fill: rgb(34, 34, 34); opacity: 0.5;"></circle><circle cx="162.92484884803434" cy="131.7351776975526" r="1" stroke="none" style="fill: rgb(34, 34, 34); opacity: 0.5;"></circle><circle cx="166.37679552318716" cy="125.0002128113979" r="1" stroke="none" style="fill: rgb(34, 34, 34); opacity: 0.5;"></circle><circle cx="149.997251930741" cy="123.21208767838856" r="1" stroke="none" style="fill: rgb(34, 34, 34); opacity: 0.5;"></circle><circle cx="149.77320002448246" cy="137.306405618394" r="1" stroke="none" style="fill: rgb(34, 34, 34); opacity: 0.5;"></circle><circle cx="167.4988332091138" cy="142.06477974055377" r="1" stroke="none" style="fill: rgb(34, 34, 34); opacity: 0.5;"></circle><circle cx="165.74088275729153" cy="121.45613960432799" r="1" stroke="none" style="fill: rgb(34, 34, 34); opacity: 0.5;"></circle><circle cx="159.19854810275535" cy="113.36897212187445" r="1" stroke="none" style="fill: rgb(34, 34, 34); opacity: 0.5;"></circle><circle cx="146.8991757743103" cy="164.83464566950423" r="1" stroke="none" style="fill: rgb(34, 34, 34); opacity: 0.5;"></circle><circle cx="177.3438556014495" cy="125.7839540329354" r="1" stroke="none" style="fill: rgb(34, 34, 34); opacity: 0.5;"></circle><circle cx="149.87669348143504" cy="104.08282613335426" r="1" stroke="none" style="fill: rgb(34, 34, 34); opacity: 0.5;"></circle><circle cx="151.17525865644967" cy="130.66260906592743" r="1" stroke="none" style="fill: rgb(34, 34, 34); opacity: 0.5;"></circle><circle cx="178.75328649695945" cy="119.622047244249" r="1" stroke="none" style="fill: rgb(34, 34, 34); opacity: 0.5;"></circle><circle cx="157.43066589654623" cy="133.57539902124083" r="1" stroke="none" style="fill: rgb(34, 34, 34); opacity: 0.5;"></circle><circle cx="158.74728999932697" cy="120.20123430532655" r="1" stroke="none" style="fill: rgb(34, 34, 34); opacity: 0.5;"></circle><circle cx="178.64101901186626" cy="173.0014896788785" r="1" stroke="none" style="fill: rgb(34, 34, 34); opacity: 0.5;"></circle><circle cx="161.93371153680016" cy="133.80217067478443" r="1" stroke="none" style="fill: rgb(34, 34, 34); opacity: 0.5;"></circle><circle cx="164.52506677650223" cy="169.14330708683264" r="1" stroke="none" style="fill: rgb(34, 34, 34); opacity: 0.5;"></circle><circle cx="174.38582874132447" cy="116.19365822530438" r="1" stroke="none" style="fill: rgb(34, 34, 34); opacity: 0.5;"></circle><circle cx="159.25497574329398" cy="112.14164715911483" r="1" stroke="none" style="fill: rgb(34, 34, 34); opacity: 0.5;"></circle><circle cx="161.77997951364193" cy="99.47614386052433" r="1" stroke="none" style="fill: rgb(34, 34, 34); opacity: 0.5;"></circle><circle cx="157.56599599732277" cy="108.25971483308301" r="1" stroke="none" style="fill: rgb(34, 34, 34); opacity: 0.5;"></circle><circle cx="161.94117939755444" cy="124.56199191333391" r="1" stroke="none" style="fill: rgb(34, 34, 34); opacity: 0.5;"></circle><circle cx="150.29418540150635" cy="166.21059799978906" r="1" stroke="none" style="fill: rgb(34, 34, 34); opacity: 0.5;"></circle><circle cx="159.38624376859323" cy="94.3255160673702" r="1" stroke="none" style="fill: rgb(34, 34, 34); opacity: 0.5;"></circle><circle cx="161.69277318270753" cy="95.82711215164537" r="1" stroke="none" style="fill: rgb(34, 34, 34); opacity: 0.5;"></circle><circle cx="165.67960329968838" cy="168.21630134092806" r="1" stroke="none" style="fill: rgb(34, 34, 34); opacity: 0.5;"></circle><circle cx="153.79602659680415" cy="118.93483719955775" r="1" stroke="none" style="fill: rgb(34, 34, 34); opacity: 0.5;"></circle><circle cx="181.64109642657692" cy="121.61779101952291" r="1" stroke="none" style="fill: rgb(34, 34, 34); opacity: 0.5;"></circle><circle cx="181.02622269323209" cy="98.01668440106297" r="1" stroke="none" style="fill: rgb(34, 34, 34); opacity: 0.5;"></circle><circle cx="144.38722095530397" cy="156.9160246863061" r="1" stroke="none" style="fill: rgb(34, 34, 34); opacity: 0.5;"></circle><circle cx="153.73629874158837" cy="130.02213236875698" r="1" stroke="none" style="fill: rgb(34, 34, 34); opacity: 0.5;"></circle><circle cx="169.380780369128" cy="81.11300276665084" r="1" stroke="none" style="fill: rgb(34, 34, 34); opacity: 0.5;"></circle><circle cx="179.18251232290908" cy="134.83643328385153" r="1" stroke="none" style="fill: rgb(34, 34, 34); opacity: 0.5;"></circle><circle cx="146.09518928791113" cy="109.52457969794952" r="1" stroke="none" style="fill: rgb(34, 34, 34); opacity: 0.5;"></circle><circle cx="183.17441153523544" cy="146.50904447773763" r="1" stroke="none" style="fill: rgb(34, 34, 34); opacity: 0.5;"></circle><circle cx="180.36577767046592" cy="113.76122579286879" r="1" stroke="none" style="fill: rgb(34, 34, 34); opacity: 0.5;"></circle><circle cx="163.12822921784723" cy="180.31181102385494" r="1" stroke="none" style="fill: rgb(34, 34, 34); opacity: 0.5;"></circle><circle cx="150.4146538803833" cy="142.33292189846003" r="1" stroke="none" style="fill: rgb(34, 34, 34); opacity: 0.5;"></circle><circle cx="173.42532525616576" cy="162.38535858714314" r="1" stroke="none" style="fill: rgb(34, 34, 34); opacity: 0.5;"></circle><circle cx="156.98229276314333" cy="169.7753564590403" r="1" stroke="none" style="fill: rgb(34, 34, 34); opacity: 0.5;"></circle><circle cx="166.6107991361943" cy="87.51393913609944" r="1" stroke="none" style="fill: rgb(34, 34, 34); opacity: 0.5;"></circle><circle cx="161.12942184350328" cy="112.98284741448941" r="1" stroke="none" style="fill: rgb(34, 34, 34); opacity: 0.5;"></circle><circle cx="158.64066725170446" cy="82.37939987241967" r="1" stroke="none" style="fill: rgb(34, 34, 34); opacity: 0.5;"></circle><circle cx="148.59498970570044" cy="148.5446265164719" r="1" stroke="none" style="fill: rgb(34, 34, 34); opacity: 0.5;"></circle><circle cx="175.39890427349903" cy="153.40795914044077" r="1" stroke="none" style="fill: rgb(34, 34, 34); opacity: 0.5;"></circle><circle cx="147.23601828213495" cy="98.80885294756327" r="1" stroke="none" style="fill: rgb(34, 34, 34); opacity: 0.5;"></circle><circle cx="168.74099253648197" cy="126.88180463944883" r="1" stroke="none" style="fill: rgb(34, 34, 34); opacity: 0.5;"></circle><circle cx="176.8559682996355" cy="45.56961055549619" r="1" stroke="none" style="fill: rgb(34, 34, 34); opacity: 0.5;"></circle><circle cx="147.01559305614035" cy="161.4085550119131" r="1" stroke="none" style="fill: rgb(34, 34, 34); opacity: 0.5;"></circle><circle cx="160.6407709606868" cy="126.08810385204623" r="1" stroke="none" style="fill: rgb(34, 34, 34); opacity: 0.5;"></circle><circle cx="165.2831223324215" cy="34.86997233458434" r="1" stroke="none" style="fill: rgb(34, 34, 34); opacity: 0.5;"></circle><circle cx="162.71373738027128" cy="154.25298999807111" r="1" stroke="none" style="fill: rgb(34, 34, 34); opacity: 0.5;"></circle><circle cx="177.51719527768194" cy="107.03315599077455" r="1" stroke="none" style="fill: rgb(34, 34, 34); opacity: 0.5;"></circle><circle cx="170.63087777449672" cy="126.48342200484522" r="1" stroke="none" style="fill: rgb(34, 34, 34); opacity: 0.5;"></circle><circle cx="167.0469176933909" cy="123.60663971073639" r="1" stroke="none" style="fill: rgb(34, 34, 34); opacity: 0.5;"></circle><circle cx="147.37415784537217" cy="100.6766546074933" r="1" stroke="none" style="fill: rgb(34, 34, 34); opacity: 0.5;"></circle><circle cx="156.72295817734783" cy="154.67895296891655" r="1" stroke="none" style="fill: rgb(34, 34, 34); opacity: 0.5;"></circle><circle cx="162.72531694673387" cy="140.8581400299755" r="1" stroke="none" style="fill: rgb(34, 34, 34); opacity: 0.5;"></circle><circle cx="158.200138693133" cy="130.85796978097346" r="1" stroke="none" style="fill: rgb(34, 34, 34); opacity: 0.5;"></circle><circle cx="150.65405122148252" cy="159.48942328175525" r="1" stroke="none" style="fill: rgb(34, 34, 34); opacity: 0.5;"></circle><circle cx="168.38844479410275" cy="82.63681634400969" r="1" stroke="none" style="fill: rgb(34, 34, 34); opacity: 0.5;"></circle><circle cx="177.61394971452887" cy="214.82860183045412" r="1" stroke="none" style="fill: rgb(34, 34, 34); opacity: 0.5;"></circle><circle cx="148.6818187293109" cy="135.19804213679947" r="1" stroke="none" style="fill: rgb(34, 34, 34); opacity: 0.5;"></circle><circle cx="178.73235831869493" cy="151.9776122581235" r="1" stroke="none" style="fill: rgb(34, 34, 34); opacity: 0.5;"></circle><circle cx="150.9296075480042" cy="114.10521387544003" r="1" stroke="none" style="fill: rgb(34, 34, 34); opacity: 0.5;"></circle><circle cx="182.58056596276342" cy="89.29440306459715" r="1" stroke="none" style="fill: rgb(34, 34, 34); opacity: 0.5;"></circle><circle cx="240.0158310202328" cy="125.03085762944434" r="1" stroke="none" style="fill: rgb(34, 34, 34); opacity: 0.5;"></circle><circle cx="255.71340403203692" cy="139.3879548841979" r="1" stroke="none" style="fill: rgb(34, 34, 34); opacity: 0.5;"></circle><circle cx="246.9190574872202" cy="134.0297084487792" r="1" stroke="none" style="fill: rgb(34, 34, 34); opacity: 0.5;"></circle><circle cx="229.73510352316788" cy="130.20600127703563" r="1" stroke="none" style="fill: rgb(34, 34, 34); opacity: 0.5;"></circle><circle cx="238.90543653540442" cy="142.03336880205623" r="1" stroke="none" style="fill: rgb(34, 34, 34); opacity: 0.5;"></circle><circle cx="248.06315358120787" cy="135.99710576736015" r="1" stroke="none" style="fill: rgb(34, 34, 34); opacity: 0.5;"></circle><circle cx="256.2189528562798" cy="134.0373696532908" r="1" stroke="none" style="fill: rgb(34, 34, 34); opacity: 0.5;"></circle><circle cx="227.61164380205395" cy="122.26975952346078" r="1" stroke="none" style="fill: rgb(34, 34, 34); opacity: 0.5;"></circle><circle cx="237.64997167937742" cy="122.108874228717" r="1" stroke="none" style="fill: rgb(34, 34, 34); opacity: 0.5;"></circle><circle cx="227.46710082809682" cy="119.96603532682018" r="1" stroke="none" style="fill: rgb(34, 34, 34); opacity: 0.5;"></circle><circle cx="242.26077153590657" cy="116.57671845088478" r="1" stroke="none" style="fill: rgb(34, 34, 34); opacity: 0.5;"></circle><circle cx="230.74020897171818" cy="131.30385188354904" r="1" stroke="none" style="fill: rgb(34, 34, 34); opacity: 0.5;"></circle><circle cx="239.159761436149" cy="116.69776548216821" r="1" stroke="none" style="fill: rgb(34, 34, 34); opacity: 0.5;"></circle><circle cx="246.77760083905957" cy="151.49265801253873" r="1" stroke="none" style="fill: rgb(34, 34, 34); opacity: 0.5;"></circle><circle cx="257.376593365054" cy="145.38284741453126" r="1" stroke="none" style="fill: rgb(34, 34, 34); opacity: 0.5;"></circle><circle cx="243.98615099537804" cy="132.69129602060127" r="1" stroke="none" style="fill: rgb(34, 34, 34); opacity: 0.5;"></circle><circle cx="247.45522921137226" cy="160.46316237518067" r="1" stroke="none" style="fill: rgb(34, 34, 34); opacity: 0.5;"></circle><circle cx="238.25609336949486" cy="100.37020642702899" r="1" stroke="none" style="fill: rgb(34, 34, 34); opacity: 0.5;"></circle><circle cx="243.3873572972219" cy="136.5341562036239" r="1" stroke="none" style="fill: rgb(34, 34, 34); opacity: 0.5;"></circle><circle cx="255.6775096072384" cy="113.32070653345131" r="1" stroke="none" style="fill: rgb(34, 34, 34); opacity: 0.5;"></circle><circle cx="255.83747434057776" cy="129.8834645670969" r="1" stroke="none" style="fill: rgb(34, 34, 34); opacity: 0.5;"></circle><circle cx="258.4357430629089" cy="113.11538625254025" r="1" stroke="none" style="fill: rgb(34, 34, 34); opacity: 0.5;"></circle><circle cx="259.4485305715715" cy="119.531645031012" r="1" stroke="none" style="fill: rgb(34, 34, 34); opacity: 0.5;"></circle><circle cx="239.98785172673652" cy="93.89572249426898" r="1" stroke="none" style="fill: rgb(34, 34, 34); opacity: 0.5;"></circle><circle cx="251.1812888456688" cy="147.07061076843854" r="1" stroke="none" style="fill: rgb(34, 34, 34); opacity: 0.5;"></circle><circle cx="235.277857849862" cy="110.17731432233853" r="1" stroke="none" style="fill: rgb(34, 34, 34); opacity: 0.5;"></circle><circle cx="245.0413257718383" cy="76.29793573110514" r="1" stroke="none" style="fill: rgb(34, 34, 34); opacity: 0.5;"></circle><circle cx="260.01364985322124" cy="129.00855501187124" r="1" stroke="none" style="fill: rgb(34, 34, 34); opacity: 0.5;"></circle><circle cx="224.40695004075815" cy="149.56509895741812" r="1" stroke="none" style="fill: rgb(34, 34, 34); opacity: 0.5;"></circle><circle cx="227.0932962030908" cy="97.37620770389252" r="1" stroke="none" style="fill: rgb(34, 34, 34); opacity: 0.5;"></circle><circle cx="256.6928622612433" cy="129.58008086843722" r="1" stroke="none" style="fill: rgb(34, 34, 34); opacity: 0.5;"></circle><circle cx="258.3472926076338" cy="139.72887848496444" r="1" stroke="none" style="fill: rgb(34, 34, 34); opacity: 0.5;"></circle><circle cx="240.23244681938732" cy="127.45103213466132" r="1" stroke="none" style="fill: rgb(34, 34, 34); opacity: 0.5;"></circle><circle cx="242.85774633479463" cy="163.4418386892939" r="1" stroke="none" style="fill: rgb(34, 34, 34); opacity: 0.5;"></circle><circle cx="254.5449027616751" cy="94.20906575879374" r="1" stroke="none" style="fill: rgb(34, 34, 34); opacity: 0.5;"></circle><circle cx="239.58579195585594" cy="129.06678016615948" r="1" stroke="none" style="fill: rgb(34, 34, 34); opacity: 0.5;"></circle><circle cx="236.7634886413421" cy="112.94837199418717" r="1" stroke="none" style="fill: rgb(34, 34, 34); opacity: 0.5;"></circle><circle cx="240.42371463679012" cy="108.03677378179523" r="1" stroke="none" style="fill: rgb(34, 34, 34); opacity: 0.5;"></circle><circle cx="232.32126170382415" cy="112.5354330710115" r="1" stroke="none" style="fill: rgb(34, 34, 34); opacity: 0.5;"></circle><circle cx="243.4501794975474" cy="124.66158757198478" r="1" stroke="none" style="fill: rgb(34, 34, 34); opacity: 0.5;"></circle><circle cx="254.2331161257911" cy="174.77352628241346" r="1" stroke="none" style="fill: rgb(34, 34, 34); opacity: 0.5;"></circle><circle cx="259.1761350080679" cy="134.7506277933215" r="1" stroke="none" style="fill: rgb(34, 34, 34); opacity: 0.5;"></circle><circle cx="249.62898811507915" cy="141.49248776353664" r="1" stroke="none" style="fill: rgb(34, 34, 34); opacity: 0.5;"></circle><circle cx="245.57269554991638" cy="109.12313258154124" r="1" stroke="none" style="fill: rgb(34, 34, 34); opacity: 0.5;"></circle><circle cx="260.62751794350794" cy="118.04920195801586" r="1" stroke="none" style="fill: rgb(34, 34, 34); opacity: 0.5;"></circle><circle cx="233.61350282606048" cy="129.1663758248104" r="1" stroke="none" style="fill: rgb(34, 34, 34); opacity: 0.5;"></circle><circle cx="239.2289435566858" cy="55.736795062851286" r="1" stroke="none" style="fill: rgb(34, 34, 34); opacity: 0.5;"></circle><circle cx="241.39466264022332" cy="179.30129814877384" r="1" stroke="none" style="fill: rgb(34, 34, 34); opacity: 0.5;"></circle><circle cx="256.1288002589276" cy="162.77991061949095" r="1" stroke="none" style="fill: rgb(34, 34, 34); opacity: 0.5;"></circle><circle cx="226.3279104737084" cy="115.10270270285139" r="1" stroke="none" style="fill: rgb(34, 34, 34); opacity: 0.5;"></circle><circle cx="250.27497844830523" cy="101.73313470964406" r="1" stroke="none" style="fill: rgb(34, 34, 34); opacity: 0.5;"></circle><circle cx="247.0428638694259" cy="116.54760587374065" r="1" stroke="none" style="fill: rgb(34, 34, 34); opacity: 0.5;"></circle><circle cx="258.71659353449274" cy="158.892615450301" r="1" stroke="none" style="fill: rgb(34, 34, 34); opacity: 0.5;"></circle><circle cx="257.1188655736464" cy="64.98923175152044" r="1" stroke="none" style="fill: rgb(34, 34, 34); opacity: 0.5;"></circle><circle cx="252.61181339137576" cy="95.22494147703297" r="1" stroke="none" style="fill: rgb(34, 34, 34); opacity: 0.5;"></circle><circle cx="250.99357144003898" cy="114.22549478627225" r="1" stroke="none" style="fill: rgb(34, 34, 34); opacity: 0.5;"></circle><circle cx="227.22758641571653" cy="142.04486060882363" r="1" stroke="none" style="fill: rgb(34, 34, 34); opacity: 0.5;"></circle><circle cx="256.47360123987363" cy="133.96765269223516" r="1" stroke="none" style="fill: rgb(34, 34, 34); opacity: 0.5;"></circle><circle cx="225.07252513611417" cy="116.78203873179585" r="1" stroke="none" style="fill: rgb(34, 34, 34); opacity: 0.5;"></circle><circle cx="250.23839469298173" cy="126.74466907869108" r="1" stroke="none" style="fill: rgb(34, 34, 34); opacity: 0.5;"></circle><circle cx="255.98520361750815" cy="195.9559906365587" r="1" stroke="none" style="fill: rgb(34, 34, 34); opacity: 0.5;"></circle><circle cx="243.52615433909236" cy="162.36620557586414" r="1" stroke="none" style="fill: rgb(34, 34, 34); opacity: 0.5;"></circle><circle cx="245.47353065323856" cy="204.93185784235874" r="1" stroke="none" style="fill: rgb(34, 34, 34); opacity: 0.5;"></circle><circle cx="256.871075432982" cy="112.24660566092388" r="1" stroke="none" style="fill: rgb(34, 34, 34); opacity: 0.5;"></circle><circle cx="238.94356609037058" cy="68.94471164086369" r="1" stroke="none" style="fill: rgb(34, 34, 34); opacity: 0.5;"></circle><circle cx="246.2161636175777" cy="117.2838476273062" r="1" stroke="none" style="fill: rgb(34, 34, 34); opacity: 0.5;"></circle><circle cx="230.35665734931936" cy="127.9321557779903" r="1" stroke="none" style="fill: rgb(34, 34, 34); opacity: 0.5;"></circle><circle cx="240.5326757649375" cy="145.35603319874062" r="1" stroke="none" style="fill: rgb(34, 34, 34); opacity: 0.5;"></circle><circle cx="245.65683025381176" cy="152.9827622900465" r="1" stroke="none" style="fill: rgb(34, 34, 34); opacity: 0.5;"></circle><circle cx="261.37527476649" cy="81.16816343913442" r="1" stroke="none" style="fill: rgb(34, 34, 34); opacity: 0.5;"></circle><circle cx="236.09366487440857" cy="80.5997020643731" r="1" stroke="none" style="fill: rgb(34, 34, 34); opacity: 0.5;"></circle><circle cx="260.8442834888168" cy="138.8286869548505" r="1" stroke="none" style="fill: rgb(34, 34, 34); opacity: 0.5;"></circle><circle cx="238.5025623268454" cy="120.68772079181369" r="1" stroke="none" style="fill: rgb(34, 34, 34); opacity: 0.5;"></circle><circle cx="247.22461926257603" cy="149.81102362224073" r="1" stroke="none" style="fill: rgb(34, 34, 34); opacity: 0.5;"></circle><circle cx="259.41427995056563" cy="174.69691423729734" r="1" stroke="none" style="fill: rgb(34, 34, 34); opacity: 0.5;"></circle><circle cx="253.41227804008636" cy="119.48950840619818" r="1" stroke="none" style="fill: rgb(34, 34, 34); opacity: 0.5;"></circle><circle cx="231.95658186124848" cy="53.737986805772756" r="1" stroke="none" style="fill: rgb(34, 34, 34); opacity: 0.5;"></circle><circle cx="257.89775962735075" cy="72.2168120877715" r="1" stroke="none" style="fill: rgb(34, 34, 34); opacity: 0.5;"></circle><circle cx="232.88795065777424" cy="133.1149606300932" r="1" stroke="none" style="fill: rgb(34, 34, 34); opacity: 0.5;"></circle><circle cx="253.0500962699675" cy="168.52198340094122" r="1" stroke="none" style="fill: rgb(34, 34, 34); opacity: 0.5;"></circle></g></svg>