<svg width="453.5433070872" height="377.952755906" xmlns="http://www.w3.org/2000/svg"><g transform="translate(56.6929133859,37.7952755906)"><text x="179.52755905535" y="-10" dominant-baseline="ideographic" style="text-anchor: middle; font-size: 14px; font-family: Arial; font-weight: normal;">Violin Plot Distribution</text><g class="y-axis" transform="translate(0, 0)" fill="none" font-size="10" font-family="sans-serif" text-anchor="end"><path class="domain" stroke="currentColor" d="M0.5,283.9645669295V0.5" style="stroke-width: 1; stroke: rgb(0, 0, 0);"></path><g class="tick" opacity="1" transform="translate(0,123.07927218572974)"><line stroke="currentColor" x2="-5" x1="0.5" style="stroke-width: 1; stroke: rgb(0, 0, 0);"></line><text fill="#000" x="-10" dy="0.32em" style="font-size: 10px; font-family: Arial;">4</text></g><g class="tick" opacity="1" transform="translate(0,107.75686316251351)"><line stroke="currentColor" x2="-5" x1="0.5" style="stroke-width: 1; stroke: rgb(0, 0, 0);"></line><text fill="#000" x="-10" dy="0.32em" style="font-size: 10px; font-family: Arial;">6</text></g><g class="tick" opacity="1" transform="translate(0,92.4344541392973)"><line stroke="currentColor" x2="-5" x1="0.5" style="stroke-width: 1; stroke: rgb(0, 0, 0);"></line><text fill="#000" x="-10" dy="0.32em" style="font-size: 10px; font-family: Arial;">8</text></g></g><text x="183.30708661441" y="313.4645669295" style="text-anchor: middle; font-size: 12px; font-family: Arial;">Group</text><text x="-141.73228346475" y="-40" transform="rotate(-90)" style="text-anchor: middle; font-size: 12px; font-family: Arial;">Value</text><g class="x-axis" transform="translate(3.77952755906, 283.4645669295)" fill="none" font-size="10" font-family="sans-serif" text-anchor="middle"><path class="domain" stroke="currentColor" d="M0.5,0.5H359.5551181107" style="stroke-width: 1; stroke: rgb(0, 0, 0);"></path><g class="tick" opacity="1" transform="translate(179.52755905535,0)"><line stroke="currentColor" y2="5" y1="0.5" style="stroke-width: 1; stroke: rgb(0, 0, 0);"></line><text fill="#000" y="10" dy="0.71em" style="font-size: 10px; font-family: Arial;">Imported Data</text></g></g><g transform="translate(103.78214351126493,0)"><rect x="-29.5236351270426" y="107.49263673135825" width="29.5236351270426" height="39.87254735055164" style="fill: white; stroke: rgb(0, 0, 0); stroke-width: 1;"></rect><line x1="-29.5236351270426" x2="0" y1="128.54466907869337" y2="128.54466907869337" style="stroke: rgb(0, 0, 0); stroke-width: 1;"></line><line x1="-19.6824234180284" x2="0" y1="39.36939774425175" y2="39.36939774425175" style="stroke: rgb(0, 0, 0); stroke-width: 1;"></line><line x1="-19.6824234180284" x2="0" y1="255.24605235189384" y2="255.24605235189384" style="stroke: rgb(0, 0, 0); stroke-width: 1;"></line><line x1="0" x2="0" y1="107.49263673135825" y2="39.36939774425175" style="stroke: rgb(0, 0, 0); stroke-width: 1;"></line><line x1="0" x2="0" y1="147.3651840819099" y2="255.24605235189384" style="stroke: rgb(0, 0, 0); stroke-width: 1;"></line><path d="M0.0007427329591708831,260.4809533946757L0.12440777066112291,257.927218557473C0.2480728083630749,255.3734837202703,0.495402883766979,250.26601404586486,0.619067921468931,242.60480953425676C0.742732959170883,234.94360502264865,0.742732959170883,224.7286656738378,0.8665217856993634,217.06746116222973C0.990310612227844,209.4062566506216,1.237888265284805,204.2987869762162,1.7330435713987271,199.1913173018108C2.228198877512649,194.0838476274054,2.970931836683532,188.976377953,4.580186581553779,183.8689082785946C6.189441326424025,178.76143860418918,8.665217856993635,173.6539689297838,9.036584336579077,168.5464992553784C9.407950816164517,163.43902958097297,7.674907244765791,158.33155990656755,9.160373163107556,153.22409023216218C10.645839081449322,148.11662055775676,15.349814489531582,143.00915088335134,18.692112805800555,137.90168120894592C22.03441112206953,132.79421153454055,24.015032346525214,127.68674186013514,23.891243519996735,122.57927218572974C23.767454693468256,117.47180251132433,21.53925581595561,112.3643328369189,19.806212244556882,107.25686316251351C18.073168673158154,102.1493934881081,16.835280407873352,97.0419238137027,14.730870356889183,91.9344541392973C12.626460305905013,86.8269844648919,9.65552846922148,81.71951479048649,7.798696071294272,76.61204511608109C5.941863673367064,71.50457544167567,5.199130714196181,66.39710576727028,4.332608928496818,61.28963609286486C3.4660871427974542,56.18216641845947,2.47577653056961,51.07469674405405,1.9806212244556882,45.96722706964865C1.485465918341766,40.85975739524324,1.485465918341766,35.75228772083784,1.2380120541113333,30.644818046432434C0.9905581898809009,25.537348372027026,0.49565046142003594,20.42987869762162,0.2481965971896034,17.87614386041892L0.0007427329591708831,15.322409023216217L0,15.322409023216217L0,17.876143860418917C0,20.42987869762162,0,25.537348372027026,0,30.644818046432434C0,35.75228772083784,0,40.85975739524324,0,45.96722706964865C0,51.07469674405405,0,56.18216641845947,0,61.28963609286486C0,66.39710576727028,0,71.50457544167567,0,76.61204511608108C0,81.71951479048649,0,86.8269844648919,0,91.9344541392973C0,97.0419238137027,0,102.1493934881081,0,107.25686316251351C0,112.3643328369189,0,117.47180251132433,0,122.57927218572972C0,127.68674186013514,0,132.79421153454055,0,137.90168120894592C0,143.00915088335134,0,148.11662055775676,0,153.22409023216218C0,158.33155990656755,0,163.43902958097297,0,168.54649925537836C0,173.6539689297838,0,178.76143860418918,0,183.8689082785946C0,188.976377953,0,194.0838476274054,0,199.1913173018108C0,204.2987869762162,0,209.4062566506216,0,217.0674611622297C0,224.7286656738378,0,234.94360502264865,0,242.60480953425676C0,250.26601404586486,0,255.3734837202703,0,257.92721855747294L0,260.4809533946757Z" style="fill: rgb(255, 92, 92); fill-opacity: 0.3; stroke: none;"></path><path d="M0.0007427329591708831,260.4809533946757L0.12440777066112291,257.927218557473C0.2480728083630749,255.3734837202703,0.495402883766979,250.26601404586486,0.619067921468931,242.60480953425676C0.742732959170883,234.94360502264865,0.742732959170883,224.7286656738378,0.8665217856993634,217.06746116222973C0.990310612227844,209.4062566506216,1.237888265284805,204.2987869762162,1.7330435713987271,199.1913173018108C2.228198877512649,194.0838476274054,2.970931836683532,188.976377953,4.580186581553779,183.8689082785946C6.189441326424025,178.76143860418918,8.665217856993635,173.6539689297838,9.036584336579077,168.5464992553784C9.407950816164517,163.43902958097297,7.674907244765791,158.33155990656755,9.160373163107556,153.22409023216218C10.645839081449322,148.11662055775676,15.349814489531582,143.00915088335134,18.692112805800555,137.90168120894592C22.03441112206953,132.79421153454055,24.015032346525214,127.68674186013514,23.891243519996735,122.57927218572974C23.767454693468256,117.47180251132433,21.53925581595561,112.3643328369189,19.806212244556882,107.25686316251351C18.073168673158154,102.1493934881081,16.835280407873352,97.0419238137027,14.730870356889183,91.9344541392973C12.626460305905013,86.8269844648919,9.65552846922148,81.71951479048649,7.798696071294272,76.61204511608109C5.941863673367064,71.50457544167567,5.199130714196181,66.39710576727028,4.332608928496818,61.28963609286486C3.4660871427974542,56.18216641845947,2.47577653056961,51.07469674405405,1.9806212244556882,45.96722706964865C1.485465918341766,40.85975739524324,1.485465918341766,35.75228772083784,1.2380120541113333,30.644818046432434C0.9905581898809009,25.537348372027026,0.49565046142003594,20.42987869762162,0.2481965971896034,17.87614386041892L0.0007427329591708831,15.322409023216217" style="fill: none; stroke: rgb(0, 0, 0); stroke-width: 1;"></path></g><g transform="translate(183.30708661440997,0)"><rect x="-29.5236351270426" y="115.72862311144976" width="29.5236351270426" height="25.664460523548797" style="fill: white; stroke: rgb(0, 0, 0); stroke-width: 1;"></rect><line x1="-29.5236351270426" x2="0" y1="127.97620770393208" y2="127.97620770393208" style="stroke: rgb(0, 0, 0); stroke-width: 1;"></line><line x1="-19.6824234180284" x2="0" y1="34.86997233458434" y2="34.86997233458434" style="stroke: rgb(0, 0, 0); stroke-width: 1;"></line><line x1="-19.6824234180284" x2="0" y1="221.93666737632412" y2="221.93666737632412" style="stroke: rgb(0, 0, 0); stroke-width: 1;"></line><line x1="0" x2="0" y1="115.72862311144976" y2="34.86997233458434" style="stroke: rgb(0, 0, 0); stroke-width: 1;"></line><line x1="0" x2="0" y1="141.39308363499856" y2="221.93666737632412" style="stroke: rgb(0, 0, 0); stroke-width: 1;"></line><path d="M0.0007427329591708831,229.83613534824323L0.2481965971896034,227.2824005110405C0.49565046142003594,224.7286656738378,0.9905581898809009,219.62119599943242,1.2380120541113333,211.95999148782428C1.485465918341766,204.2987869762162,1.485465918341766,194.0838476274054,1.980621224455688,186.4226431157973C2.47577653056961,178.76143860418918,3.4660871427974542,173.6539689297838,5.199130714196181,168.5464992553784C6.9321742855949084,163.43902958097297,9.407950816164517,158.33155990656755,11.388572040620206,153.22409023216218C13.369193265075893,148.11662055775676,14.85465918341766,143.00915088335134,19.43484576497144,137.90168120894592C24.015032346525217,132.79421153454055,31.689939591291008,127.68674186013514,32.92782785657582,122.57927218572974C34.16571612186062,117.47180251132433,28.96658540766444,112.3643328369189,24.38639882611066,107.25686316251351C19.80621224455688,102.1493934881081,15.844969795645504,97.0419238137027,12.750249132433494,91.9344541392973C9.655528469221478,86.8269844648919,7.42732959170883,81.71951479048649,5.570497193781622,76.61204511608109C3.713664795854415,71.50457544167567,2.2281988775126487,66.39710576727028,1.7330435713987271,58.73590125566216C1.237888265284805,51.07469674405405,1.7330435713987271,40.85975739524324,1.6093785336967752,33.19855288363514C1.4857134959948228,25.537348372027026,0.743228114476997,20.42987869762162,0.37198542371808396,17.87614386041892L0.0007427329591708831,15.322409023216217L0,15.322409023216217L0,17.876143860418917C0,20.42987869762162,0,25.537348372027026,0,33.19855288363514C0,40.85975739524324,0,51.07469674405405,0,58.73590125566216C0,66.39710576727028,0,71.50457544167567,0,76.61204511608108C0,81.71951479048649,0,86.8269844648919,0,91.9344541392973C0,97.0419238137027,0,102.1493934881081,0,107.25686316251351C0,112.3643328369189,0,117.47180251132433,0,122.57927218572972C0,127.68674186013514,0,132.79421153454055,0,137.90168120894592C0,143.00915088335134,0,148.11662055775676,0,153.22409023216218C0,158.33155990656755,0,163.43902958097297,0,168.54649925537836C0,173.6539689297838,0,178.76143860418918,0,186.42264311579729C0,194.0838476274054,0,204.2987869762162,0,211.95999148782434C0,219.62119599943242,0,224.7286656738378,0,227.28240051104055L0,229.83613534824323Z" style="fill: rgb(92, 255, 92); fill-opacity: 0.3; stroke: none;"></path><path d="M0.0007427329591708831,229.83613534824323L0.2481965971896034,227.2824005110405C0.49565046142003594,224.7286656738378,0.9905581898809009,219.62119599943242,1.2380120541113333,211.95999148782428C1.485465918341766,204.2987869762162,1.485465918341766,194.0838476274054,1.980621224455688,186.4226431157973C2.47577653056961,178.76143860418918,3.4660871427974542,173.6539689297838,5.199130714196181,168.5464992553784C6.9321742855949084,163.43902958097297,9.407950816164517,158.33155990656755,11.388572040620206,153.22409023216218C13.369193265075893,148.11662055775676,14.85465918341766,143.00915088335134,19.43484576497144,137.90168120894592C24.015032346525217,132.79421153454055,31.689939591291008,127.68674186013514,32.92782785657582,122.57927218572974C34.16571612186062,117.47180251132433,28.96658540766444,112.3643328369189,24.38639882611066,107.25686316251351C19.80621224455688,102.1493934881081,15.844969795645504,97.0419238137027,12.750249132433494,91.9344541392973C9.655528469221478,86.8269844648919,7.42732959170883,81.71951479048649,5.570497193781622,76.61204511608109C3.713664795854415,71.50457544167567,2.2281988775126487,66.39710576727028,1.7330435713987271,58.73590125566216C1.237888265284805,51.07469674405405,1.7330435713987271,40.85975739524324,1.6093785336967752,33.19855288363514C1.4857134959948228,25.537348372027026,0.743228114476997,20.42987869762162,0.37198542371808396,17.87614386041892L0.0007427329591708831,15.322409023216217" style="fill: none; stroke: rgb(0, 0, 0); stroke-width: 1;"></path></g><g transform="translate(262.83202971755503,0)"><rect x="-29.5236351270426" y="113.90449031723587" width="29.5236351270426" height="27.70712917645632" style="fill: white; stroke: rgb(0, 0, 0); stroke-width: 1;"></rect><line x1="-29.5236351270426" x2="0" y1="127.69159395632582" y2="127.69159395632582" style="stroke: rgb(0, 0, 0); stroke-width: 1;"></line><line x1="-19.6824234180284" x2="0" y1="29.474185997058726" y2="29.474185997058726" style="stroke: rgb(0, 0, 0); stroke-width: 1;"></line><line x1="-19.6824234180284" x2="0" y1="204.93185784235874" y2="204.93185784235874" style="stroke: rgb(0, 0, 0); stroke-width: 1;"></line><line x1="0" x2="0" y1="113.90449031723587" y2="29.474185997058726" style="stroke: rgb(0, 0, 0); stroke-width: 1;"></line><line x1="0" x2="0" y1="141.6116194936922" y2="204.93185784235874" style="stroke: rgb(0, 0, 0); stroke-width: 1;"></line><path d="M0.0007427329591708831,214.51372632502702L0.12440777066112291,211.95999148782434C0.2480728083630749,209.4062566506216,0.495402883766979,204.2987869762162,0.866645574525892,199.1913173018108C1.237888265284805,194.0838476274054,1.7330435713987271,188.976377953,2.3519877040411297,183.8689082785946C2.970931836683532,178.76143860418918,3.7136647958544153,173.6539689297838,4.703975408082259,168.5464992553784C5.694286020310103,163.43902958097297,6.9321742855949084,158.33155990656755,9.531739642693,153.22409023216218C12.13130499979109,148.11662055775676,16.092547448702465,143.00915088335134,20.301367550670804,137.90168120894592C24.510187652639143,132.79421153454055,28.96658540766444,127.68674186013514,30.080684846420763,122.57927218572974C31.19478428517709,117.47180251132433,28.96658540766444,112.3643328369189,24.88155413222458,107.25686316251351C20.796522856784723,102.1493934881081,14.85465918341766,97.0419238137027,11.388572040620206,91.9344541392973C7.922484897822752,86.8269844648919,6.9321742855949084,81.71951479048649,6.065652499895545,76.61204511608109C5.199130714196181,71.50457544167567,4.456397755025298,66.39710576727028,4.0850312754398574,61.28963609286486C3.7136647958544153,56.18216641845947,3.7136647958544153,51.07469674405405,3.218509489740493,43.41349223244595C2.723354183626571,35.75228772083784,1.7330435713987271,25.537348372027026,1.114223227582853,17.87614386041892C0.495402883766979,10.21493934881081,0.2480728083630749,5.107469674405405,0.12440777066112291,2.5537348372027027L0.0007427329591708831,0L0,0L0,2.5537348372027027C0,5.107469674405405,0,10.21493934881081,0,17.87614386041892C0,25.537348372027026,0,35.75228772083784,0,43.41349223244595C0,51.07469674405405,0,56.18216641845947,0,61.28963609286486C0,66.39710576727028,0,71.50457544167567,0,76.61204511608108C0,81.71951479048649,0,86.8269844648919,0,91.9344541392973C0,97.0419238137027,0,102.1493934881081,0,107.25686316251351C0,112.3643328369189,0,117.47180251132433,0,122.57927218572972C0,127.68674186013514,0,132.79421153454055,0,137.90168120894592C0,143.00915088335134,0,148.11662055775676,0,153.22409023216218C0,158.33155990656755,0,163.43902958097297,0,168.54649925537836C0,173.6539689297838,0,178.76143860418918,0,183.8689082785946C0,188.976377953,0,194.0838476274054,0,199.1913173018108C0,204.2987869762162,0,209.4062566506216,0,211.95999148782428L0,214.51372632502702Z" style="fill: rgb(92, 92, 255); fill-opacity: 0.3; stroke: none;"></path><path d="M0.0007427329591708831,214.51372632502702L0.12440777066112291,211.95999148782434C0.2480728083630749,209.4062566506216,0.495402883766979,204.2987869762162,0.866645574525892,199.1913173018108C1.237888265284805,194.0838476274054,1.7330435713987271,188.976377953,2.3519877040411297,183.8689082785946C2.970931836683532,178.76143860418918,3.7136647958544153,173.6539689297838,4.703975408082259,168.5464992553784C5.694286020310103,163.43902958097297,6.9321742855949084,158.33155990656755,9.531739642693,153.22409023216218C12.13130499979109,148.11662055775676,16.092547448702465,143.00915088335134,20.301367550670804,137.90168120894592C24.510187652639143,132.79421153454055,28.96658540766444,127.68674186013514,30.080684846420763,122.57927218572974C31.19478428517709,117.47180251132433,28.96658540766444,112.3643328369189,24.88155413222458,107.25686316251351C20.796522856784723,102.1493934881081,14.85465918341766,97.0419238137027,11.388572040620206,91.9344541392973C7.922484897822752,86.8269844648919,6.9321742855949084,81.71951479048649,6.065652499895545,76.61204511608109C5.199130714196181,71.50457544167567,4.456397755025298,66.39710576727028,4.0850312754398574,61.28963609286486C3.7136647958544153,56.18216641845947,3.7136647958544153,51.07469674405405,3.218509489740493,43.41349223244595C2.723354183626571,35.75228772083784,1.7330435713987271,25.537348372027026,1.114223227582853,17.87614386041892C0.495402883766979,10.21493934881081,0.2480728083630749,5.107469674405405,0.12440777066112291,2.5537348372027027L0.0007427329591708831,0" style="fill: none; stroke: rgb(0, 0, 0); stroke-width: 1;"></path></g><line x1="103.78214351126493" x2="103.78214351126493" y1="123.3791019367416" y2="109.61038518847954" stroke="#000" stroke-width="1" stroke-linecap="round"></line><line x1="183.30708661440997" x2="183.30708661440997" y1="137.08499680800853" y2="125.52040859773608" stroke="#000" stroke-width="1" stroke-linecap="round"></line><line x1="262.83202971755503" x2="262.83202971755503" y1="132.3128325177278" y2="118.95552245173911" stroke="#000" stroke-width="1" stroke-linecap="round"></line><circle cx="90.26479970954408" cy="108.10036177924154" r="1" stroke="none" style="fill: rgb(34, 34, 34); opacity: 0.5;"></circle><circle cx="84.56786794467888" cy="116.27793147493207" r="1" stroke="none" style="fill: rgb(34, 34, 34); opacity: 0.5;"></circle><circle cx="88.56104032918873" cy="116.54530751238717" r="1" stroke="none" style="fill: rgb(34, 34, 34); opacity: 0.5;"></circle><circle cx="91.62384253927927" cy="105.72845286244768" r="1" stroke="none" style="fill: rgb(34, 34, 34); opacity: 0.5;"></circle><circle cx="103.77730454223263" cy="108.2053202810506" r="1" stroke="none" style="fill: rgb(34, 34, 34); opacity: 0.5;"></circle><circle cx="92.67508787065483" cy="115.6045115983617" r="1" stroke="none" style="fill: rgb(34, 34, 34); opacity: 0.5;"></circle><circle cx="80.1775526115594" cy="131.76275803379434" r="1" stroke="none" style="fill: rgb(34, 34, 34); opacity: 0.5;"></circle><circle cx="73.04699573820487" cy="99.48993402864522" r="1" stroke="none" style="fill: rgb(34, 34, 34); opacity: 0.5;"></circle><circle cx="101.86824718450028" cy="109.90687380307875" r="1" stroke="none" style="fill: rgb(34, 34, 34); opacity: 0.5;"></circle><circle cx="75.85991227893348" cy="97.11802511185134" r="1" stroke="none" style="fill: rgb(34, 34, 34); opacity: 0.5;"></circle><circle cx="97.50278130969205" cy="118.86665247940442" r="1" stroke="none" style="fill: rgb(34, 34, 34); opacity: 0.5;"></circle><circle cx="97.60571404258486" cy="88.2670355395905" r="1" stroke="none" style="fill: rgb(34, 34, 34); opacity: 0.5;"></circle><circle cx="82.73020834701389" cy="94.66950414994137" r="1" stroke="none" style="fill: rgb(34, 34, 34); opacity: 0.5;"></circle><circle cx="98.53762941015391" cy="134.2855926794669" r="1" stroke="none" style="fill: rgb(34, 34, 34); opacity: 0.5;"></circle><circle cx="81.26495161068756" cy="149.48848691230205" r="1" stroke="none" style="fill: rgb(34, 34, 34); opacity: 0.5;"></circle><circle cx="81.02488982329956" cy="99.30683124081777" r="1" stroke="none" style="fill: rgb(34, 34, 34); opacity: 0.5;"></circle><circle cx="92.51033222647109" cy="129.5862098320465" r="1" stroke="none" style="fill: rgb(34, 34, 34); opacity: 0.5;"></circle><circle cx="84.51345436464581" cy="126.54777612274273" r="1" stroke="none" style="fill: rgb(34, 34, 34); opacity: 0.5;"></circle><circle cx="77.98726621278561" cy="129.26520536301015" r="1" stroke="none" style="fill: rgb(34, 34, 34); opacity: 0.5;"></circle><circle cx="95.3709672859799" cy="114.65605447982465" r="1" stroke="none" style="fill: rgb(34, 34, 34); opacity: 0.5;"></circle><circle cx="92.20906108437238" cy="138.55824643559075" r="1" stroke="none" style="fill: rgb(34, 34, 34); opacity: 0.5;"></circle><circle cx="102.52550453995387" cy="90.1945945947111" r="1" stroke="none" style="fill: rgb(34, 34, 34); opacity: 0.5;"></circle><circle cx="94.53929465174586" cy="114.18029367965376" r="1" stroke="none" style="fill: rgb(34, 34, 34); opacity: 0.5;"></circle><circle cx="101.31230913692552" cy="137.2658012344825" r="1" stroke="none" style="fill: rgb(34, 34, 34); opacity: 0.5;"></circle><circle cx="77.8718224749517" cy="96.43387954896474" r="1" stroke="none" style="fill: rgb(34, 34, 34); opacity: 0.5;"></circle><circle cx="81.09337899234221" cy="111.98765694843152" r="1" stroke="none" style="fill: rgb(34, 34, 34); opacity: 0.5;"></circle><circle cx="82.47691212585526" cy="107.7226643968193" r="1" stroke="none" style="fill: rgb(34, 34, 34); opacity: 0.5;"></circle><circle cx="102.42851857178938" cy="101.41519472241234" r="1" stroke="none" style="fill: rgb(34, 34, 34); opacity: 0.5;"></circle><circle cx="65.73506256026394" cy="181.77969780827908" r="1" stroke="none" style="fill: rgb(34, 34, 34); opacity: 0.5;"></circle><circle cx="88.58740213536302" cy="125.38250691652712" r="1" stroke="none" style="fill: rgb(34, 34, 34); opacity: 0.5;"></circle><circle cx="92.2552132570587" cy="140.91100234110561" r="1" stroke="none" style="fill: rgb(34, 34, 34); opacity: 0.5;"></circle><circle cx="79.40593508363904" cy="131.42872951708827" r="1" stroke="none" style="fill: rgb(34, 34, 34); opacity: 0.5;"></circle><circle cx="82.01191850585727" cy="97.21991913185573" r="1" stroke="none" style="fill: rgb(34, 34, 34); opacity: 0.5;"></circle><circle cx="81.73698868546661" cy="96.17033411376542" r="1" stroke="none" style="fill: rgb(34, 34, 34); opacity: 0.5;"></circle><circle cx="65.04826655611802" cy="121.15965098972877" r="1" stroke="none" style="fill: rgb(34, 34, 34); opacity: 0.5;"></circle><circle cx="83.68119172446373" cy="112.9361140669686" r="1" stroke="none" style="fill: rgb(34, 34, 34); opacity: 0.5;"></circle><circle cx="84.7981889650502" cy="137.58527346261653" r="1" stroke="none" style="fill: rgb(34, 34, 34); opacity: 0.5;"></circle><circle cx="96.22699744295728" cy="100.4200042563544" r="1" stroke="none" style="fill: rgb(34, 34, 34); opacity: 0.5;"></circle><circle cx="87.55567245066669" cy="120.06026814231299" r="1" stroke="none" style="fill: rgb(34, 34, 34); opacity: 0.5;"></circle><circle cx="67.0250347762109" cy="126.62208980650533" r="1" stroke="none" style="fill: rgb(34, 34, 34); opacity: 0.5;"></circle><circle cx="75.91855306319067" cy="140.58616726981342" r="1" stroke="none" style="fill: rgb(34, 34, 34); opacity: 0.5;"></circle><circle cx="78.8012289165584" cy="100.7961693978744" r="1" stroke="none" style="fill: rgb(34, 34, 34); opacity: 0.5;"></circle><circle cx="74.08362795734956" cy="132.64839327533625" r="1" stroke="none" style="fill: rgb(34, 34, 34); opacity: 0.5;"></circle><circle cx="102.97841176860044" cy="84.81183230485523" r="1" stroke="none" style="fill: rgb(34, 34, 34); opacity: 0.5;"></circle><circle cx="69.76247476103211" cy="127.42268567796837" r="1" stroke="none" style="fill: rgb(34, 34, 34); opacity: 0.5;"></circle><circle cx="89.80936540291673" cy="107.95173441171637" r="1" stroke="none" style="fill: rgb(34, 34, 34); opacity: 0.5;"></circle><circle cx="76.88461146073915" cy="152.43498616746652" r="1" stroke="none" style="fill: rgb(34, 34, 34); opacity: 0.5;"></circle><circle cx="75.18606192273991" cy="125.47290912976412" r="1" stroke="none" style="fill: rgb(34, 34, 34); opacity: 0.5;"></circle><circle cx="92.11807748720564" cy="129.53641200272105" r="1" stroke="none" style="fill: rgb(34, 34, 34); opacity: 0.5;"></circle><circle cx="76.09623073812719" cy="122.84818046408718" r="1" stroke="none" style="fill: rgb(34, 34, 34); opacity: 0.5;"></circle><circle cx="78.18215325729685" cy="74.2071930198873" r="1" stroke="none" style="fill: rgb(34, 34, 34); opacity: 0.5;"></circle><circle cx="96.19339637590176" cy="102.52683549704666" r="1" stroke="none" style="fill: rgb(34, 34, 34); opacity: 0.5;"></circle><circle cx="93.92283297727786" cy="106.80255373497516" r="1" stroke="none" style="fill: rgb(34, 34, 34); opacity: 0.5;"></circle><circle cx="90.65287664405558" cy="105.80046818485681" r="1" stroke="none" style="fill: rgb(34, 34, 34); opacity: 0.5;"></circle><circle cx="71.27424338459392" cy="168.27835709747208" r="1" stroke="none" style="fill: rgb(34, 34, 34); opacity: 0.5;"></circle><circle cx="89.67605008936532" cy="99.40489465856638" r="1" stroke="none" style="fill: rgb(34, 34, 34); opacity: 0.5;"></circle><circle cx="98.62563945668161" cy="114.88665673562403" r="1" stroke="none" style="fill: rgb(34, 34, 34); opacity: 0.5;"></circle><circle cx="88.60612826721129" cy="77.73287933612934" r="1" stroke="none" style="fill: rgb(34, 34, 34); opacity: 0.5;"></circle><circle cx="82.64182566166085" cy="142.98489040239792" r="1" stroke="none" style="fill: rgb(34, 34, 34); opacity: 0.5;"></circle><circle cx="77.7594064247757" cy="77.93513513523578" r="1" stroke="none" style="fill: rgb(34, 34, 34); opacity: 0.5;"></circle><circle cx="93.83075586070177" cy="99.798680570463" r="1" stroke="none" style="fill: rgb(34, 34, 34); opacity: 0.5;"></circle><circle cx="74.47482412460427" cy="177.23277293063964" r="1" stroke="none" style="fill: rgb(34, 34, 34); opacity: 0.5;"></circle><circle cx="91.96040738151454" cy="70.08163439038633" r="1" stroke="none" style="fill: rgb(34, 34, 34); opacity: 0.5;"></circle><circle cx="102.39512604547006" cy="70.67920834229176" r="1" stroke="none" style="fill: rgb(34, 34, 34); opacity: 0.5;"></circle><circle cx="69.78243540606591" cy="140.54709512680424" r="1" stroke="none" style="fill: rgb(34, 34, 34); opacity: 0.5;"></circle><circle cx="100.4357677187184" cy="132.40783145367178" r="1" stroke="none" style="fill: rgb(34, 34, 34); opacity: 0.5;"></circle><circle cx="66.48429300399235" cy="39.36939774425175" r="1" stroke="none" style="fill: rgb(34, 34, 34); opacity: 0.5;"></circle><circle cx="87.67658612105316" cy="180.92317514388128" r="1" stroke="none" style="fill: rgb(34, 34, 34); opacity: 0.5;"></circle><circle cx="64.84135128627355" cy="53.07988933822561" r="1" stroke="none" style="fill: rgb(34, 34, 34); opacity: 0.5;"></circle><circle cx="76.10970862504873" cy="69.23507129185367" r="1" stroke="none" style="fill: rgb(34, 34, 34); opacity: 0.5;"></circle><circle cx="67.03685600484543" cy="145.15684188143882" r="1" stroke="none" style="fill: rgb(34, 34, 34); opacity: 0.5;"></circle><circle cx="91.95927940036876" cy="113.49768035766948" r="1" stroke="none" style="fill: rgb(34, 34, 34); opacity: 0.5;"></circle><circle cx="90.10858098875357" cy="88.60795914035707" r="1" stroke="none" style="fill: rgb(34, 34, 34); opacity: 0.5;"></circle><circle cx="75.81140833466551" cy="137.33168759328228" r="1" stroke="none" style="fill: rgb(34, 34, 34); opacity: 0.5;"></circle><circle cx="85.50009946671425" cy="147.40770376694928" r="1" stroke="none" style="fill: rgb(34, 34, 34); opacity: 0.5;"></circle><circle cx="88.80275269458916" cy="199.1170036180482" r="1" stroke="none" style="fill: rgb(34, 34, 34); opacity: 0.5;"></circle><circle cx="100.17784156312126" cy="63.5719089168729" r="1" stroke="none" style="fill: rgb(34, 34, 34); opacity: 0.5;"></circle><circle cx="92.85147463426318" cy="227.59063630589088" r="1" stroke="none" style="fill: rgb(34, 34, 34); opacity: 0.5;"></circle><circle cx="68.690852431223" cy="92.86529048745768" r="1" stroke="none" style="fill: rgb(34, 34, 34); opacity: 0.5;"></circle><circle cx="75.0176294235315" cy="92.91662055768546" r="1" stroke="none" style="fill: rgb(34, 34, 34); opacity: 0.5;"></circle><circle cx="168.3438966771875" cy="119.26503511400806" r="1" stroke="none" style="fill: rgb(34, 34, 34); opacity: 0.5;"></circle><circle cx="181.94835253289182" cy="134.68397531407052" r="1" stroke="none" style="fill: rgb(34, 34, 34); opacity: 0.5;"></circle><circle cx="175.4170934437594" cy="139.9633113430197" r="1" stroke="none" style="fill: rgb(34, 34, 34); opacity: 0.5;"></circle><circle cx="170.5117525435321" cy="135.82702702720246" r="1" stroke="none" style="fill: rgb(34, 34, 34); opacity: 0.5;"></circle><circle cx="182.55940398069853" cy="131.9925941691426" r="1" stroke="none" style="fill: rgb(34, 34, 34); opacity: 0.5;"></circle><circle cx="177.17655258435258" cy="130.59902106848108" r="1" stroke="none" style="fill: rgb(34, 34, 34); opacity: 0.5;"></circle><circle cx="171.67957146631704" cy="120.3238135775123" r="1" stroke="none" style="fill: rgb(34, 34, 34); opacity: 0.5;"></circle><circle cx="166.0116757138372" cy="110.37420727828685" r="1" stroke="none" style="fill: rgb(34, 34, 34); opacity: 0.5;"></circle><circle cx="161.78252992523377" cy="134.63341136429392" r="1" stroke="none" style="fill: rgb(34, 34, 34); opacity: 0.5;"></circle><circle cx="173.11046385549832" cy="125.1212598426813" r="1" stroke="none" style="fill: rgb(34, 34, 34); opacity: 0.5;"></circle><circle cx="165.50924428253984" cy="140.72866567372932" r="1" stroke="none" style="fill: rgb(34, 34, 34); opacity: 0.5;"></circle><circle cx="155.4770096205495" cy="141.294062566686" r="1" stroke="none" style="fill: rgb(34, 34, 34); opacity: 0.5;"></circle><circle cx="172.9714918430367" cy="124.87763353921217" r="1" stroke="none" style="fill: rgb(34, 34, 34); opacity: 0.5;"></circle><circle cx="166.69002487181507" cy="118.8520961908324" r="1" stroke="none" style="fill: rgb(34, 34, 34); opacity: 0.5;"></circle><circle cx="152.03275834375907" cy="151.2053628433534" r="1" stroke="none" style="fill: rgb(34, 34, 34); opacity: 0.5;"></circle><circle cx="182.6036451769034" cy="135.9181953608906" r="1" stroke="none" style="fill: rgb(34, 34, 34); opacity: 0.5;"></circle><circle cx="170.20365064077083" cy="133.23447542047427" r="1" stroke="none" style="fill: rgb(34, 34, 34); opacity: 0.5;"></circle><circle cx="163.25472320950087" cy="117.67686741875171" r="1" stroke="none" style="fill: rgb(34, 34, 34); opacity: 0.5;"></circle><circle cx="160.64114201678734" cy="158.3157267505769" r="1" stroke="none" style="fill: rgb(34, 34, 34); opacity: 0.5;"></circle><circle cx="150.47714365283696" cy="169.2666524794695" r="1" stroke="none" style="fill: rgb(34, 34, 34); opacity: 0.5;"></circle><circle cx="183.25356088985936" cy="121.55650138343006" r="1" stroke="none" style="fill: rgb(34, 34, 34); opacity: 0.5;"></circle><circle cx="161.09314794567211" cy="133.9768461376491" r="1" stroke="none" style="fill: rgb(34, 34, 34); opacity: 0.5;"></circle><circle cx="181.36390675262436" cy="136.85286231130678" r="1" stroke="none" style="fill: rgb(34, 34, 34); opacity: 0.5;"></circle><circle cx="182.41554966714153" cy="108.66192806994242" r="1" stroke="none" style="fill: rgb(34, 34, 34); opacity: 0.5;"></circle><circle cx="177.0859529360635" cy="135.91589699953713" r="1" stroke="none" style="fill: rgb(34, 34, 34); opacity: 0.5;"></circle><circle cx="162.801840513281" cy="151.81519472247743" r="1" stroke="none" style="fill: rgb(34, 34, 34); opacity: 0.5;"></circle><circle cx="175.85218585038257" cy="139.21557778268675" r="1" stroke="none" style="fill: rgb(34, 34, 34); opacity: 0.5;"></circle><circle cx="151.69128516519444" cy="149.50763992358105" r="1" stroke="none" style="fill: rgb(34, 34, 34); opacity: 0.5;"></circle><circle cx="147.36700033868232" cy="162.06665247946026" r="1" stroke="none" style="fill: rgb(34, 34, 34); opacity: 0.5;"></circle><circle cx="151.9182480977141" cy="149.00889550987537" r="1" stroke="none" style="fill: rgb(34, 34, 34); opacity: 0.5;"></circle><circle cx="163.96557830124988" cy="109.088657161239" r="1" stroke="none" style="fill: rgb(34, 34, 34); opacity: 0.5;"></circle><circle cx="154.93842174283682" cy="114.87363268795428" r="1" stroke="none" style="fill: rgb(34, 34, 34); opacity: 0.5;"></circle><circle cx="154.98904867517953" cy="107.25073419890425" r="1" stroke="none" style="fill: rgb(34, 34, 34); opacity: 0.5;"></circle><circle cx="164.21543338374283" cy="127.26026814232227" r="1" stroke="none" style="fill: rgb(34, 34, 34); opacity: 0.5;"></circle><circle cx="166.1110776013135" cy="119.02217493099008" r="1" stroke="none" style="fill: rgb(34, 34, 34); opacity: 0.5;"></circle><circle cx="155.13376006502483" cy="165.1939561610987" r="1" stroke="none" style="fill: rgb(34, 34, 34); opacity: 0.5;"></circle><circle cx="152.72025007521205" cy="119.71857842109524" r="1" stroke="none" style="fill: rgb(34, 34, 34); opacity: 0.5;"></circle><circle cx="158.38708335571982" cy="135.98254947878814" r="1" stroke="none" style="fill: rgb(34, 34, 34); opacity: 0.5;"></circle><circle cx="149.81073979004452" cy="142.28925303274391" r="1" stroke="none" style="fill: rgb(34, 34, 34); opacity: 0.5;"></circle><circle cx="148.17851745825416" cy="116.01361991928158" r="1" stroke="none" style="fill: rgb(34, 34, 34); opacity: 0.5;"></circle><circle cx="165.04164666038537" cy="164.44162587805877" r="1" stroke="none" style="fill: rgb(34, 34, 34); opacity: 0.5;"></circle><circle cx="159.93664889008403" cy="121.26537561198892" r="1" stroke="none" style="fill: rgb(34, 34, 34); opacity: 0.5;"></circle><circle cx="158.71558956322235" cy="135.3826771655292" r="1" stroke="none" style="fill: rgb(34, 34, 34); opacity: 0.5;"></circle><circle cx="149.1578220298107" cy="135.51215152177537" r="1" stroke="none" style="fill: rgb(34, 34, 34); opacity: 0.5;"></circle><circle cx="162.8948061893039" cy="129.44984039173988" r="1" stroke="none" style="fill: rgb(34, 34, 34); opacity: 0.5;"></circle><circle cx="165.90302638241022" cy="191.15931049184087" r="1" stroke="none" style="fill: rgb(34, 34, 34); opacity: 0.5;"></circle><circle cx="153.81216448473361" cy="130.07193019808247" r="1" stroke="none" style="fill: rgb(34, 34, 34); opacity: 0.5;"></circle><circle cx="182.25406045346193" cy="141.20366035344907" r="1" stroke="none" style="fill: rgb(34, 34, 34); opacity: 0.5;"></circle><circle cx="160.45858819867567" cy="197.9088316665676" r="1" stroke="none" style="fill: rgb(34, 34, 34); opacity: 0.5;"></circle><circle cx="156.92113886622752" cy="221.93666737632412" r="1" stroke="none" style="fill: rgb(34, 34, 34); opacity: 0.5;"></circle><circle cx="160.52136948594898" cy="166.7124068952994" r="1" stroke="none" style="fill: rgb(34, 34, 34); opacity: 0.5;"></circle><circle cx="144.80954680398023" cy="124.52445201122704" r="1" stroke="none" style="fill: rgb(34, 34, 34); opacity: 0.5;"></circle><circle cx="169.49700424639204" cy="144.69333900848656" r="1" stroke="none" style="fill: rgb(34, 34, 34); opacity: 0.5;"></circle><circle cx="152.56842730337686" cy="93.51879123229784" r="1" stroke="none" style="fill: rgb(34, 34, 34); opacity: 0.5;"></circle><circle cx="156.8339440781504" cy="130.7261970633738" r="1" stroke="none" style="fill: rgb(34, 34, 34); opacity: 0.5;"></circle><circle cx="155.68597203815946" cy="103.01562034488727" r="1" stroke="none" style="fill: rgb(34, 34, 34); opacity: 0.5;"></circle><circle cx="149.9485300427345" cy="98.94215790606523" r="1" stroke="none" style="fill: rgb(34, 34, 34); opacity: 0.5;"></circle><circle cx="175.54567223315607" cy="128.3841668441752" r="1" stroke="none" style="fill: rgb(34, 34, 34); opacity: 0.5;"></circle><circle cx="155.49334076976902" cy="125.6920195787961" r="1" stroke="none" style="fill: rgb(34, 34, 34); opacity: 0.5;"></circle><circle cx="177.41426284690053" cy="81.70827835720279" r="1" stroke="none" style="fill: rgb(34, 34, 34); opacity: 0.5;"></circle><circle cx="173.1690981165565" cy="117.82243030447225" r="1" stroke="none" style="fill: rgb(34, 34, 34); opacity: 0.5;"></circle><circle cx="179.29835995091298" cy="156.5291338584699" r="1" stroke="none" style="fill: rgb(34, 34, 34); opacity: 0.5;"></circle><circle cx="179.59425639865304" cy="125.66597148345663" r="1" stroke="none" style="fill: rgb(34, 34, 34); opacity: 0.5;"></circle><circle cx="169.843058878237" cy="91.80497978305114" r="1" stroke="none" style="fill: rgb(34, 34, 34); opacity: 0.5;"></circle><circle cx="163.1050698631496" cy="42.86673760380087" r="1" stroke="none" style="fill: rgb(34, 34, 34); opacity: 0.5;"></circle><circle cx="162.45454334398923" cy="127.56824856368893" r="1" stroke="none" style="fill: rgb(34, 34, 34); opacity: 0.5;"></circle><circle cx="162.49399830710882" cy="133.12032347325132" r="1" stroke="none" style="fill: rgb(34, 34, 34); opacity: 0.5;"></circle><circle cx="154.74243915839506" cy="147.98459246667335" r="1" stroke="none" style="fill: rgb(34, 34, 34); opacity: 0.5;"></circle><circle cx="176.3920643262831" cy="132.62157905954564" r="1" stroke="none" style="fill: rgb(34, 34, 34); opacity: 0.5;"></circle><circle cx="156.6847362944173" cy="136.02238774224847" r="1" stroke="none" style="fill: rgb(34, 34, 34); opacity: 0.5;"></circle><circle cx="162.6393086546093" cy="141.69014683993612" r="1" stroke="none" style="fill: rgb(34, 34, 34); opacity: 0.5;"></circle><circle cx="173.09149292810676" cy="122.99910619296584" r="1" stroke="none" style="fill: rgb(34, 34, 34); opacity: 0.5;"></circle><circle cx="174.79590038592778" cy="92.02715471388775" r="1" stroke="none" style="fill: rgb(34, 34, 34); opacity: 0.5;"></circle><circle cx="165.70787358576735" cy="113.42643115571153" r="1" stroke="none" style="fill: rgb(34, 34, 34); opacity: 0.5;"></circle><circle cx="172.36676580672938" cy="179.9877420730139" r="1" stroke="none" style="fill: rgb(34, 34, 34); opacity: 0.5;"></circle><circle cx="168.22402703173165" cy="70.84775484154713" r="1" stroke="none" style="fill: rgb(34, 34, 34); opacity: 0.5;"></circle><circle cx="145.54550045042507" cy="125.25916152389026" r="1" stroke="none" style="fill: rgb(34, 34, 34); opacity: 0.5;"></circle><circle cx="166.09759419810055" cy="94.15773568856595" r="1" stroke="none" style="fill: rgb(34, 34, 34); opacity: 0.5;"></circle><circle cx="175.69202055955913" cy="122.90947010018002" r="1" stroke="none" style="fill: rgb(34, 34, 34); opacity: 0.5;"></circle><circle cx="151.72807509844947" cy="143.24230687398793" r="1" stroke="none" style="fill: rgb(34, 34, 34); opacity: 0.5;"></circle><circle cx="236.6770907782274" cy="123.73534794653138" r="1" stroke="none" style="fill: rgb(34, 34, 34); opacity: 0.5;"></circle><circle cx="254.1393108189807" cy="121.51742924042082" r="1" stroke="none" style="fill: rgb(34, 34, 34); opacity: 0.5;"></circle><circle cx="241.46124943469488" cy="114.28142157920698" r="1" stroke="none" style="fill: rgb(34, 34, 34); opacity: 0.5;"></circle><circle cx="238.44286739293642" cy="130.5951904662253" r="1" stroke="none" style="fill: rgb(34, 34, 34); opacity: 0.5;"></circle><circle cx="238.69105556432228" cy="123.99582889992607" r="1" stroke="none" style="fill: rgb(34, 34, 34); opacity: 0.5;"></circle><circle cx="232.4448766295964" cy="148.72619706339705" r="1" stroke="none" style="fill: rgb(34, 34, 34); opacity: 0.5;"></circle><circle cx="259.9967540897667" cy="136.2131517345875" r="1" stroke="none" style="fill: rgb(34, 34, 34); opacity: 0.5;"></circle><circle cx="254.79408399870516" cy="110.24779740384531" r="1" stroke="none" style="fill: rgb(34, 34, 34); opacity: 0.5;"></circle><circle cx="233.40976721398673" cy="126.28346456709225" r="1" stroke="none" style="fill: rgb(34, 34, 34); opacity: 0.5;"></circle><circle cx="228.42636081139972" cy="140.87422855944988" r="1" stroke="none" style="fill: rgb(34, 34, 34); opacity: 0.5;"></circle><circle cx="252.4775018544072" cy="135.1658650778507" r="1" stroke="none" style="fill: rgb(34, 34, 34); opacity: 0.5;"></circle><circle cx="233.26779203714491" cy="126.24822302633886" r="1" stroke="none" style="fill: rgb(34, 34, 34); opacity: 0.5;"></circle><circle cx="226.0515576358687" cy="128.3351351353009" r="1" stroke="none" style="fill: rgb(34, 34, 34); opacity: 0.5;"></circle><circle cx="245.45291470789968" cy="131.91368376267303" r="1" stroke="none" style="fill: rgb(34, 34, 34); opacity: 0.5;"></circle><circle cx="223.5434367410805" cy="125.6077463291684" r="1" stroke="none" style="fill: rgb(34, 34, 34); opacity: 0.5;"></circle><circle cx="225.76367225454666" cy="120.48546499270725" r="1" stroke="none" style="fill: rgb(34, 34, 34); opacity: 0.5;"></circle><circle cx="260.2657332298873" cy="144.1915301129762" r="1" stroke="none" style="fill: rgb(34, 34, 34); opacity: 0.5;"></circle><circle cx="255.7217988802389" cy="121.31747180266788" r="1" stroke="none" style="fill: rgb(34, 34, 34); opacity: 0.5;"></circle><circle cx="257.33823893064863" cy="120.60421366263716" r="1" stroke="none" style="fill: rgb(34, 34, 34); opacity: 0.5;"></circle><circle cx="225.65170790263778" cy="139.2240051076495" r="1" stroke="none" style="fill: rgb(34, 34, 34); opacity: 0.5;"></circle><circle cx="236.32049986507715" cy="125.73568844451226" r="1" stroke="none" style="fill: rgb(34, 34, 34); opacity: 0.5;"></circle><circle cx="251.25290672960347" cy="125.61847201548467" r="1" stroke="none" style="fill: rgb(34, 34, 34); opacity: 0.5;"></circle><circle cx="224.50024695226273" cy="114.09908491183072" r="1" stroke="none" style="fill: rgb(34, 34, 34); opacity: 0.5;"></circle><circle cx="257.31420570326713" cy="146.11755692719447" r="1" stroke="none" style="fill: rgb(34, 34, 34); opacity: 0.5;"></circle><circle cx="251.96048164414475" cy="128.54735050027244" r="1" stroke="none" style="fill: rgb(34, 34, 34); opacity: 0.5;"></circle><circle cx="237.34162046676047" cy="141.79204085994053" r="1" stroke="none" style="fill: rgb(34, 34, 34); opacity: 0.5;"></circle><circle cx="251.7372235906879" cy="130.55918280502073" r="1" stroke="none" style="fill: rgb(34, 34, 34); opacity: 0.5;"></circle><circle cx="233.33254618100548" cy="121.44464779756056" r="1" stroke="none" style="fill: rgb(34, 34, 34); opacity: 0.5;"></circle><circle cx="239.846960531892" cy="150.80161736559168" r="1" stroke="none" style="fill: rgb(34, 34, 34); opacity: 0.5;"></circle><circle cx="260.99969263656715" cy="134.95824643558612" r="1" stroke="none" style="fill: rgb(34, 34, 34); opacity: 0.5;"></circle><circle cx="237.9885288555539" cy="119.76761012996955" r="1" stroke="none" style="fill: rgb(34, 34, 34); opacity: 0.5;"></circle><circle cx="223.78594866619778" cy="123.96441796142848" r="1" stroke="none" style="fill: rgb(34, 34, 34); opacity: 0.5;"></circle><circle cx="224.74798523182469" cy="91.5988933816889" r="1" stroke="none" style="fill: rgb(34, 34, 34); opacity: 0.5;"></circle><circle cx="243.42647123048502" cy="118.89116833384156" r="1" stroke="none" style="fill: rgb(34, 34, 34); opacity: 0.5;"></circle><circle cx="254.7329769447079" cy="141.55147903827603" r="1" stroke="none" style="fill: rgb(34, 34, 34); opacity: 0.5;"></circle><circle cx="250.5693795590011" cy="166.36382209002122" r="1" stroke="none" style="fill: rgb(34, 34, 34); opacity: 0.5;"></circle><circle cx="246.14617607091586" cy="117.42864439257559" r="1" stroke="none" style="fill: rgb(34, 34, 34); opacity: 0.5;"></circle><circle cx="239.11085493005643" cy="165.7179825496927" r="1" stroke="none" style="fill: rgb(34, 34, 34); opacity: 0.5;"></circle><circle cx="256.81249396819584" cy="106.87456905738426" r="1" stroke="none" style="fill: rgb(34, 34, 34); opacity: 0.5;"></circle><circle cx="229.50079088639714" cy="115.10346882330252" r="1" stroke="none" style="fill: rgb(34, 34, 34); opacity: 0.5;"></circle><circle cx="260.29878914723224" cy="122.73479463731536" r="1" stroke="none" style="fill: rgb(34, 34, 34); opacity: 0.5;"></circle><circle cx="224.75129872565833" cy="143.0438816771373" r="1" stroke="none" style="fill: rgb(34, 34, 34); opacity: 0.5;"></circle><circle cx="259.151735215513" cy="85.56186422654166" r="1" stroke="none" style="fill: rgb(34, 34, 34); opacity: 0.5;"></circle><circle cx="230.64684623672153" cy="139.67218557157858" r="1" stroke="none" style="fill: rgb(34, 34, 34); opacity: 0.5;"></circle><circle cx="225.2157029173075" cy="130.59442434577412" r="1" stroke="none" style="fill: rgb(34, 34, 34); opacity: 0.5;"></circle><circle cx="245.69388762074982" cy="96.75028729529414" r="1" stroke="none" style="fill: rgb(34, 34, 34); opacity: 0.5;"></circle><circle cx="244.76001334148782" cy="190.378633752108" r="1" stroke="none" style="fill: rgb(34, 34, 34); opacity: 0.5;"></circle><circle cx="262.7596544064141" cy="131.05333049601947" r="1" stroke="none" style="fill: rgb(34, 34, 34); opacity: 0.5;"></circle><circle cx="238.10383872439178" cy="182.61323685914203" r="1" stroke="none" style="fill: rgb(34, 34, 34); opacity: 0.5;"></circle><circle cx="240.50664085075297" cy="131.4823579486695" r="1" stroke="none" style="fill: rgb(34, 34, 34); opacity: 0.5;"></circle><circle cx="256.86746246406443" cy="131.78420940642687" r="1" stroke="none" style="fill: rgb(34, 34, 34); opacity: 0.5;"></circle><circle cx="245.78899574723638" cy="149.2724409450747" r="1" stroke="none" style="fill: rgb(34, 34, 34); opacity: 0.5;"></circle><circle cx="242.68580397751214" cy="165.88423068759457" r="1" stroke="none" style="fill: rgb(34, 34, 34); opacity: 0.5;"></circle><circle cx="247.17390308923962" cy="136.35871462030806" r="1" stroke="none" style="fill: rgb(34, 34, 34); opacity: 0.5;"></circle><circle cx="250.18214311043872" cy="196.57884656335244" r="1" stroke="none" style="fill: rgb(34, 34, 34); opacity: 0.5;"></circle><circle cx="256.37455049808756" cy="133.13947648453035" r="1" stroke="none" style="fill: rgb(34, 34, 34); opacity: 0.5;"></circle><circle cx="228.7100491052874" cy="53.587827197345256" r="1" stroke="none" style="fill: rgb(34, 34, 34); opacity: 0.5;"></circle><circle cx="229.71122953894334" cy="91.75364971282333" r="1" stroke="none" style="fill: rgb(34, 34, 34); opacity: 0.5;"></circle><circle cx="238.242634562784" cy="115.87801659942612" r="1" stroke="none" style="fill: rgb(34, 34, 34); opacity: 0.5;"></circle><circle cx="239.56838343955746" cy="136.1472653757877" r="1" stroke="none" style="fill: rgb(34, 34, 34); opacity: 0.5;"></circle><circle cx="224.84274566460147" cy="159.8387742074846" r="1" stroke="none" style="fill: rgb(34, 34, 34); opacity: 0.5;"></circle><circle cx="229.10156165949803" cy="71.86516280068871" r="1" stroke="none" style="fill: rgb(34, 34, 34); opacity: 0.5;"></circle><circle cx="258.94705909360175" cy="52.72670781024048" r="1" stroke="none" style="fill: rgb(34, 34, 34); opacity: 0.5;"></circle><circle cx="241.10964652720816" cy="98.53611406694998" r="1" stroke="none" style="fill: rgb(34, 34, 34); opacity: 0.5;"></circle><circle cx="245.85801471445978" cy="79.03911470535854" r="1" stroke="none" style="fill: rgb(34, 34, 34); opacity: 0.5;"></circle><circle cx="260.4851720945317" cy="80.76365184092151" r="1" stroke="none" style="fill: rgb(34, 34, 34); opacity: 0.5;"></circle><circle cx="231.72271033152572" cy="148.62813364564846" r="1" stroke="none" style="fill: rgb(34, 34, 34); opacity: 0.5;"></circle><circle cx="238.5263207298514" cy="94.93228346468955" r="1" stroke="none" style="fill: rgb(34, 34, 34); opacity: 0.5;"></circle><circle cx="254.0421491379577" cy="169.04524366908407" r="1" stroke="none" style="fill: rgb(34, 34, 34); opacity: 0.5;"></circle><circle cx="259.25303204305555" cy="57.4176633326981" r="1" stroke="none" style="fill: rgb(34, 34, 34); opacity: 0.5;"></circle><circle cx="235.85980775029364" cy="133.2383060227301" r="1" stroke="none" style="fill: rgb(34, 34, 34); opacity: 0.5;"></circle><circle cx="230.86898585909236" cy="88.67307937870575" r="1" stroke="none" style="fill: rgb(34, 34, 34); opacity: 0.5;"></circle><circle cx="232.17894443409884" cy="147.79382847433433" r="1" stroke="none" style="fill: rgb(34, 34, 34); opacity: 0.5;"></circle><circle cx="257.37905068480177" cy="148.02749521193834" r="1" stroke="none" style="fill: rgb(34, 34, 34); opacity: 0.5;"></circle><circle cx="253.16709828858936" cy="180.86418386914193" r="1" stroke="none" style="fill: rgb(34, 34, 34); opacity: 0.5;"></circle><circle cx="253.7929985753612" cy="103.45307512250007" r="1" stroke="none" style="fill: rgb(34, 34, 34); opacity: 0.5;"></circle><circle cx="240.8139095939793" cy="167.35211747201868" r="1" stroke="none" style="fill: rgb(34, 34, 34); opacity: 0.5;"></circle><circle cx="242.30044594828124" cy="29.474185997058726" r="1" stroke="none" style="fill: rgb(34, 34, 34); opacity: 0.5;"></circle><circle cx="252.27040011607437" cy="98.212045116109" r="1" stroke="none" style="fill: rgb(34, 34, 34); opacity: 0.5;"></circle><circle cx="249.26688809984174" cy="120.08401787629896" r="1" stroke="none" style="fill: rgb(34, 34, 34); opacity: 0.5;"></circle><circle cx="95.59331824851523" cy="138.9811449246315" r="1" stroke="none" style="fill: rgb(34, 34, 34); opacity: 0.5;"></circle><circle cx="73.32703190990287" cy="137.62051500336995" r="1" stroke="none" style="fill: rgb(34, 34, 34); opacity: 0.5;"></circle><circle cx="89.06998984363292" cy="147.35101085356337" r="1" stroke="none" style="fill: rgb(34, 34, 34); opacity: 0.5;"></circle><circle cx="87.25941193401819" cy="126.51559906379399" r="1" stroke="none" style="fill: rgb(34, 34, 34); opacity: 0.5;"></circle><circle cx="103.04035581693573" cy="142.5259842521526" r="1" stroke="none" style="fill: rgb(34, 34, 34); opacity: 0.5;"></circle><circle cx="92.90882372229224" cy="134.30474569074593" r="1" stroke="none" style="fill: rgb(34, 34, 34); opacity: 0.5;"></circle><circle cx="103.35844246792873" cy="132.5871036392434" r="1" stroke="none" style="fill: rgb(34, 34, 34); opacity: 0.5;"></circle><circle cx="75.25963485410813" cy="140.27512236664214" r="1" stroke="none" style="fill: rgb(34, 34, 34); opacity: 0.5;"></circle><circle cx="92.72998744397916" cy="125.1756543947137" r="1" stroke="none" style="fill: rgb(34, 34, 34); opacity: 0.5;"></circle><circle cx="83.07479501829982" cy="132.13662481396082" r="1" stroke="none" style="fill: rgb(34, 34, 34); opacity: 0.5;"></circle><circle cx="77.35203158644894" cy="138.58199616957674" r="1" stroke="none" style="fill: rgb(34, 34, 34); opacity: 0.5;"></circle><circle cx="66.88253739898711" cy="139.050095765236" r="1" stroke="none" style="fill: rgb(34, 34, 34); opacity: 0.5;"></circle><circle cx="76.77573359361133" cy="122.29887210060487" r="1" stroke="none" style="fill: rgb(34, 34, 34); opacity: 0.5;"></circle><circle cx="92.38810377728895" cy="112.13705043640786" r="1" stroke="none" style="fill: rgb(34, 34, 34); opacity: 0.5;"></circle><circle cx="66.31935152276802" cy="85.26460949149127" r="1" stroke="none" style="fill: rgb(34, 34, 34); opacity: 0.5;"></circle><circle cx="96.92371694341593" cy="129.15411789759182" r="1" stroke="none" style="fill: rgb(34, 34, 34); opacity: 0.5;"></circle><circle cx="96.5119345916798" cy="146.87141945113672" r="1" stroke="none" style="fill: rgb(34, 34, 34); opacity: 0.5;"></circle><circle cx="68.01139331319328" cy="141.51470525662032" r="1" stroke="none" style="fill: rgb(34, 34, 34); opacity: 0.5;"></circle><circle cx="71.59376012192877" cy="157.81238561416427" r="1" stroke="none" style="fill: rgb(34, 34, 34); opacity: 0.5;"></circle><circle cx="84.51421639444712" cy="129.4100021282795" r="1" stroke="none" style="fill: rgb(34, 34, 34); opacity: 0.5;"></circle><circle cx="70.59593548284789" cy="121.45537348387681" r="1" stroke="none" style="fill: rgb(34, 34, 34); opacity: 0.5;"></circle><circle cx="86.71834961452168" cy="171.1735262824088" r="1" stroke="none" style="fill: rgb(34, 34, 34); opacity: 0.5;"></circle><circle cx="75.24275530563142" cy="170.60583102809866" r="1" stroke="none" style="fill: rgb(34, 34, 34); opacity: 0.5;"></circle><circle cx="72.25212553177604" cy="152.3844222176899" r="1" stroke="none" style="fill: rgb(34, 34, 34); opacity: 0.5;"></circle><circle cx="65.85548524529699" cy="136.20472440962476" r="1" stroke="none" style="fill: rgb(34, 34, 34); opacity: 0.5;"></circle><circle cx="76.73357637952638" cy="112.41055543747228" r="1" stroke="none" style="fill: rgb(34, 34, 34); opacity: 0.5;"></circle><circle cx="97.17455406616861" cy="144.0651202385347" r="1" stroke="none" style="fill: rgb(34, 34, 34); opacity: 0.5;"></circle><circle cx="87.9845823328978" cy="170.41430091530844" r="1" stroke="none" style="fill: rgb(34, 34, 34); opacity: 0.5;"></circle><circle cx="77.95575811247636" cy="112.48103851897908" r="1" stroke="none" style="fill: rgb(34, 34, 34); opacity: 0.5;"></circle><circle cx="69.25063259627422" cy="131.60034049814828" r="1" stroke="none" style="fill: rgb(34, 34, 34); opacity: 0.5;"></circle><circle cx="97.7006667813593" cy="124.78186848281709" r="1" stroke="none" style="fill: rgb(34, 34, 34); opacity: 0.5;"></circle><circle cx="88.8603033531591" cy="169.05826771675382" r="1" stroke="none" style="fill: rgb(34, 34, 34); opacity: 0.5;"></circle><circle cx="97.06850017346895" cy="125.58399659518241" r="1" stroke="none" style="fill: rgb(34, 34, 34); opacity: 0.5;"></circle><circle cx="88.23220767620596" cy="98.43192168559213" r="1" stroke="none" style="fill: rgb(34, 34, 34); opacity: 0.5;"></circle><circle cx="80.31593424719483" cy="151.04830815086544" r="1" stroke="none" style="fill: rgb(34, 34, 34); opacity: 0.5;"></circle><circle cx="103.70785412443597" cy="175.81928069824798" r="1" stroke="none" style="fill: rgb(34, 34, 34); opacity: 0.5;"></circle><circle cx="68.0974908509953" cy="127.93522025979497" r="1" stroke="none" style="fill: rgb(34, 34, 34); opacity: 0.5;"></circle><circle cx="80.65081783016332" cy="181.80268142181387" r="1" stroke="none" style="fill: rgb(34, 34, 34); opacity: 0.5;"></circle><circle cx="103.02393954215137" cy="110.74347733574636" r="1" stroke="none" style="fill: rgb(34, 34, 34); opacity: 0.5;"></circle><circle cx="82.32120792032536" cy="142.09925516085602" r="1" stroke="none" style="fill: rgb(34, 34, 34); opacity: 0.5;"></circle><circle cx="70.62637737847251" cy="176.59382847437152" r="1" stroke="none" style="fill: rgb(34, 34, 34); opacity: 0.5;"></circle><circle cx="102.92821936280266" cy="151.80600127706353" r="1" stroke="none" style="fill: rgb(34, 34, 34); opacity: 0.5;"></circle><circle cx="76.9264308720842" cy="178.55203234753856" r="1" stroke="none" style="fill: rgb(34, 34, 34); opacity: 0.5;"></circle><circle cx="78.56167782339291" cy="131.7681208769525" r="1" stroke="none" style="fill: rgb(34, 34, 34); opacity: 0.5;"></circle><circle cx="75.82075556287549" cy="100.50427750598213" r="1" stroke="none" style="fill: rgb(34, 34, 34); opacity: 0.5;"></circle><circle cx="88.02106970800531" cy="110.47533517784007" r="1" stroke="none" style="fill: rgb(34, 34, 34); opacity: 0.5;"></circle><circle cx="96.8167271537421" cy="153.39723345412452" r="1" stroke="none" style="fill: rgb(34, 34, 34); opacity: 0.5;"></circle><circle cx="97.88870594839288" cy="157.7464992553644" r="1" stroke="none" style="fill: rgb(34, 34, 34); opacity: 0.5;"></circle><circle cx="97.97839312903372" cy="125.73032560135414" r="1" stroke="none" style="fill: rgb(34, 34, 34); opacity: 0.5;"></circle><circle cx="92.43960919244702" cy="118.00629921275085" r="1" stroke="none" style="fill: rgb(34, 34, 34); opacity: 0.5;"></circle><circle cx="88.61643351552178" cy="153.04098744433472" r="1" stroke="none" style="fill: rgb(34, 34, 34); opacity: 0.5;"></circle><circle cx="82.62342647975211" cy="61.11266226864671" r="1" stroke="none" style="fill: rgb(34, 34, 34); opacity: 0.5;"></circle><circle cx="79.9524852307491" cy="196.63937007899415" r="1" stroke="none" style="fill: rgb(34, 34, 34); opacity: 0.5;"></circle><circle cx="90.39037829256321" cy="134.51925941707097" r="1" stroke="none" style="fill: rgb(34, 34, 34); opacity: 0.5;"></circle><circle cx="80.06672370959815" cy="185.65779953205507" r="1" stroke="none" style="fill: rgb(34, 34, 34); opacity: 0.5;"></circle><circle cx="92.55477058604922" cy="200.9855713984294" r="1" stroke="none" style="fill: rgb(34, 34, 34); opacity: 0.5;"></circle><circle cx="83.42193949900279" cy="212.44290274553939" r="1" stroke="none" style="fill: rgb(34, 34, 34); opacity: 0.5;"></circle><circle cx="70.87918598293203" cy="76.61281123653222" r="1" stroke="none" style="fill: rgb(34, 34, 34); opacity: 0.5;"></circle><circle cx="80.05675907553342" cy="178.37046180061344" r="1" stroke="none" style="fill: rgb(34, 34, 34); opacity: 0.5;"></circle><circle cx="71.99681034744154" cy="187.8741859972633" r="1" stroke="none" style="fill: rgb(34, 34, 34); opacity: 0.5;"></circle><circle cx="68.24529888432735" cy="255.24605235189384" r="1" stroke="none" style="fill: rgb(34, 34, 34); opacity: 0.5;"></circle><circle cx="87.16562769727247" cy="145.44413705062414" r="1" stroke="none" style="fill: rgb(34, 34, 34); opacity: 0.5;"></circle><circle cx="79.90951637091621" cy="182.80629921283455" r="1" stroke="none" style="fill: rgb(34, 34, 34); opacity: 0.5;"></circle><circle cx="101.00949792870475" cy="123.32394126425804" r="1" stroke="none" style="fill: rgb(34, 34, 34); opacity: 0.5;"></circle><circle cx="98.64194176358876" cy="174.15373483742434" r="1" stroke="none" style="fill: rgb(34, 34, 34); opacity: 0.5;"></circle><circle cx="89.02323809664108" cy="164.81855714002987" r="1" stroke="none" style="fill: rgb(34, 34, 34); opacity: 0.5;"></circle><circle cx="96.12034030802182" cy="41.95275590556601" r="1" stroke="none" style="fill: rgb(34, 34, 34); opacity: 0.5;"></circle><circle cx="78.83993944113219" cy="110.79021068326715" r="1" stroke="none" style="fill: rgb(34, 34, 34); opacity: 0.5;"></circle><circle cx="76.51544975973167" cy="100.45677803801017" r="1" stroke="none" style="fill: rgb(34, 34, 34); opacity: 0.5;"></circle><circle cx="89.88904774787767" cy="81.4929985104266" r="1" stroke="none" style="fill: rgb(34, 34, 34); opacity: 0.5;"></circle><circle cx="88.71314686918232" cy="167.69380719323638" r="1" stroke="none" style="fill: rgb(34, 34, 34); opacity: 0.5;"></circle><circle cx="74.66347268776585" cy="156.4601830178654" r="1" stroke="none" style="fill: rgb(34, 34, 34); opacity: 0.5;"></circle><circle cx="86.2040912849536" cy="71.79161523737726" r="1" stroke="none" style="fill: rgb(34, 34, 34); opacity: 0.5;"></circle><circle cx="93.64765698944579" cy="169.91402426070044" r="1" stroke="none" style="fill: rgb(34, 34, 34); opacity: 0.5;"></circle><circle cx="80.96544553170165" cy="150.54343477355047" r="1" stroke="none" style="fill: rgb(34, 34, 34); opacity: 0.5;"></circle><circle cx="99.32902568186488" cy="144.5493083636683" r="1" stroke="none" style="fill: rgb(34, 34, 34); opacity: 0.5;"></circle><circle cx="89.97478945271205" cy="123.03971057687735" r="1" stroke="none" style="fill: rgb(34, 34, 34); opacity: 0.5;"></circle><circle cx="75.17073715051367" cy="161.40012768695036" r="1" stroke="none" style="fill: rgb(34, 34, 34); opacity: 0.5;"></circle><circle cx="85.04880682935136" cy="184.95833156014524" r="1" stroke="none" style="fill: rgb(34, 34, 34); opacity: 0.5;"></circle><circle cx="70.6790302252711" cy="143.99463715702788" r="1" stroke="none" style="fill: rgb(34, 34, 34); opacity: 0.5;"></circle><circle cx="167.15458547131755" cy="141.1163226220167" r="1" stroke="none" style="fill: rgb(34, 34, 34); opacity: 0.5;"></circle><circle cx="174.7639314130544" cy="135.72283464584459" r="1" stroke="none" style="fill: rgb(34, 34, 34); opacity: 0.5;"></circle><circle cx="147.9192900218128" cy="118.82911257729758" r="1" stroke="none" style="fill: rgb(34, 34, 34); opacity: 0.5;"></circle><circle cx="154.81170891220128" cy="135.87759097697906" r="1" stroke="none" style="fill: rgb(34, 34, 34); opacity: 0.5;"></circle><circle cx="149.83142601294657" cy="126.25052138769232" r="1" stroke="none" style="fill: rgb(34, 34, 34); opacity: 0.5;"></circle><circle cx="146.1536744435726" cy="125.00940625681183" r="1" stroke="none" style="fill: rgb(34, 34, 34); opacity: 0.5;"></circle><circle cx="167.10600227663755" cy="131.28699723362354" r="1" stroke="none" style="fill: rgb(34, 34, 34); opacity: 0.5;"></circle><circle cx="172.22800958130722" cy="113.97190891693802" r="1" stroke="none" style="fill: rgb(34, 34, 34); opacity: 0.5;"></circle><circle cx="152.44072831749992" cy="119.00761864241802" r="1" stroke="none" style="fill: rgb(34, 34, 34); opacity: 0.5;"></circle><circle cx="164.36530508274052" cy="105.50321344980644" r="1" stroke="none" style="fill: rgb(34, 34, 34); opacity: 0.5;"></circle><circle cx="154.0419461590697" cy="121.58944456282995" r="1" stroke="none" style="fill: rgb(34, 34, 34); opacity: 0.5;"></circle><circle cx="161.19637219496667" cy="127.49699936173097" r="1" stroke="none" style="fill: rgb(34, 34, 34); opacity: 0.5;"></circle><circle cx="169.27483892371527" cy="138.7781230050739" r="1" stroke="none" style="fill: rgb(34, 34, 34); opacity: 0.5;"></circle><circle cx="177.69947628098677" cy="104.30423494373974" r="1" stroke="none" style="fill: rgb(34, 34, 34); opacity: 0.5;"></circle><circle cx="155.36883794686574" cy="131.7351776975526" r="1" stroke="none" style="fill: rgb(34, 34, 34); opacity: 0.5;"></circle><circle cx="161.1523986569011" cy="125.0002128113979" r="1" stroke="none" style="fill: rgb(34, 34, 34); opacity: 0.5;"></circle><circle cx="160.6149314469505" cy="123.21208767838856" r="1" stroke="none" style="fill: rgb(34, 34, 34); opacity: 0.5;"></circle><circle cx="174.10694222293725" cy="137.306405618394" r="1" stroke="none" style="fill: rgb(34, 34, 34); opacity: 0.5;"></circle><circle cx="151.33141042533867" cy="142.06477974055377" r="1" stroke="none" style="fill: rgb(34, 34, 34); opacity: 0.5;"></circle><circle cx="173.81118025374383" cy="121.45613960432799" r="1" stroke="none" style="fill: rgb(34, 34, 34); opacity: 0.5;"></circle><circle cx="179.59445044291493" cy="113.36897212187445" r="1" stroke="none" style="fill: rgb(34, 34, 34); opacity: 0.5;"></circle><circle cx="161.85690854137098" cy="164.83464566950423" r="1" stroke="none" style="fill: rgb(34, 34, 34); opacity: 0.5;"></circle><circle cx="153.93583058132458" cy="125.7839540329354" r="1" stroke="none" style="fill: rgb(34, 34, 34); opacity: 0.5;"></circle><circle cx="163.64083270126392" cy="104.08282613335426" r="1" stroke="none" style="fill: rgb(34, 34, 34); opacity: 0.5;"></circle><circle cx="151.96479390151748" cy="130.66260906592743" r="1" stroke="none" style="fill: rgb(34, 34, 34); opacity: 0.5;"></circle><circle cx="177.29680123946204" cy="119.622047244249" r="1" stroke="none" style="fill: rgb(34, 34, 34); opacity: 0.5;"></circle><circle cx="162.07643697050216" cy="133.57539902124083" r="1" stroke="none" style="fill: rgb(34, 34, 34); opacity: 0.5;"></circle><circle cx="144.73845509214948" cy="120.20123430532655" r="1" stroke="none" style="fill: rgb(34, 34, 34); opacity: 0.5;"></circle><circle cx="179.8487384627862" cy="173.0014896788785" r="1" stroke="none" style="fill: rgb(34, 34, 34); opacity: 0.5;"></circle><circle cx="177.86230264760727" cy="133.80217067478443" r="1" stroke="none" style="fill: rgb(34, 34, 34); opacity: 0.5;"></circle><circle cx="149.41925419981524" cy="169.14330708683264" r="1" stroke="none" style="fill: rgb(34, 34, 34); opacity: 0.5;"></circle><circle cx="155.63431784317314" cy="116.19365822530438" r="1" stroke="none" style="fill: rgb(34, 34, 34); opacity: 0.5;"></circle><circle cx="151.33391057007796" cy="112.14164715911483" r="1" stroke="none" style="fill: rgb(34, 34, 34); opacity: 0.5;"></circle><circle cx="171.7544577670794" cy="99.47614386052433" r="1" stroke="none" style="fill: rgb(34, 34, 34); opacity: 0.5;"></circle><circle cx="153.46749370063176" cy="108.25971483308301" r="1" stroke="none" style="fill: rgb(34, 34, 34); opacity: 0.5;"></circle><circle cx="170.2101112314819" cy="124.56199191333391" r="1" stroke="none" style="fill: rgb(34, 34, 34); opacity: 0.5;"></circle><circle cx="179.48089922270782" cy="166.21059799978906" r="1" stroke="none" style="fill: rgb(34, 34, 34); opacity: 0.5;"></circle><circle cx="174.5487452297759" cy="94.3255160673702" r="1" stroke="none" style="fill: rgb(34, 34, 34); opacity: 0.5;"></circle><circle cx="173.0016521516332" cy="95.82711215164537" r="1" stroke="none" style="fill: rgb(34, 34, 34); opacity: 0.5;"></circle><circle cx="164.89349130044388" cy="168.21630134092806" r="1" stroke="none" style="fill: rgb(34, 34, 34); opacity: 0.5;"></circle><circle cx="180.79212296080067" cy="118.93483719955775" r="1" stroke="none" style="fill: rgb(34, 34, 34); opacity: 0.5;"></circle><circle cx="150.28703984009132" cy="121.61779101952291" r="1" stroke="none" style="fill: rgb(34, 34, 34); opacity: 0.5;"></circle><circle cx="166.40311564086548" cy="98.01668440106297" r="1" stroke="none" style="fill: rgb(34, 34, 34); opacity: 0.5;"></circle><circle cx="182.29239963817398" cy="156.9160246863061" r="1" stroke="none" style="fill: rgb(34, 34, 34); opacity: 0.5;"></circle><circle cx="177.96312211414778" cy="130.02213236875698" r="1" stroke="none" style="fill: rgb(34, 34, 34); opacity: 0.5;"></circle><circle cx="162.65119701396955" cy="81.11300276665084" r="1" stroke="none" style="fill: rgb(34, 34, 34); opacity: 0.5;"></circle><circle cx="155.32112170571997" cy="134.83643328385153" r="1" stroke="none" style="fill: rgb(34, 34, 34); opacity: 0.5;"></circle><circle cx="170.38921800478386" cy="109.52457969794952" r="1" stroke="none" style="fill: rgb(34, 34, 34); opacity: 0.5;"></circle><circle cx="173.97321726453987" cy="146.50904447773763" r="1" stroke="none" style="fill: rgb(34, 34, 34); opacity: 0.5;"></circle><circle cx="144.00998487231163" cy="113.76122579286879" r="1" stroke="none" style="fill: rgb(34, 34, 34); opacity: 0.5;"></circle><circle cx="170.44103349476268" cy="180.31181102385494" r="1" stroke="none" style="fill: rgb(34, 34, 34); opacity: 0.5;"></circle><circle cx="171.96201540748763" cy="142.33292189846003" r="1" stroke="none" style="fill: rgb(34, 34, 34); opacity: 0.5;"></circle><circle cx="178.74659030217998" cy="162.38535858714314" r="1" stroke="none" style="fill: rgb(34, 34, 34); opacity: 0.5;"></circle><circle cx="160.52730061441582" cy="169.7753564590403" r="1" stroke="none" style="fill: rgb(34, 34, 34); opacity: 0.5;"></circle><circle cx="145.53981450219888" cy="87.51393913609944" r="1" stroke="none" style="fill: rgb(34, 34, 34); opacity: 0.5;"></circle><circle cx="157.6809703414428" cy="112.98284741448941" r="1" stroke="none" style="fill: rgb(34, 34, 34); opacity: 0.5;"></circle><circle cx="146.4291512916973" cy="82.37939987241967" r="1" stroke="none" style="fill: rgb(34, 34, 34); opacity: 0.5;"></circle><circle cx="168.91780450392042" cy="148.5446265164719" r="1" stroke="none" style="fill: rgb(34, 34, 34); opacity: 0.5;"></circle><circle cx="174.04848892821843" cy="153.40795914044077" r="1" stroke="none" style="fill: rgb(34, 34, 34); opacity: 0.5;"></circle><circle cx="156.70522638482112" cy="98.80885294756327" r="1" stroke="none" style="fill: rgb(34, 34, 34); opacity: 0.5;"></circle><circle cx="149.77337896315774" cy="126.88180463944883" r="1" stroke="none" style="fill: rgb(34, 34, 34); opacity: 0.5;"></circle><circle cx="182.367577386385" cy="45.56961055549619" r="1" stroke="none" style="fill: rgb(34, 34, 34); opacity: 0.5;"></circle><circle cx="156.62933375305937" cy="161.4085550119131" r="1" stroke="none" style="fill: rgb(34, 34, 34); opacity: 0.5;"></circle><circle cx="164.34305799899957" cy="126.08810385204623" r="1" stroke="none" style="fill: rgb(34, 34, 34); opacity: 0.5;"></circle><circle cx="144.1241689916856" cy="34.86997233458434" r="1" stroke="none" style="fill: rgb(34, 34, 34); opacity: 0.5;"></circle><circle cx="169.4432988447691" cy="154.25298999807111" r="1" stroke="none" style="fill: rgb(34, 34, 34); opacity: 0.5;"></circle><circle cx="181.97629799558206" cy="107.03315599077455" r="1" stroke="none" style="fill: rgb(34, 34, 34); opacity: 0.5;"></circle><circle cx="175.5316786070654" cy="126.48342200484522" r="1" stroke="none" style="fill: rgb(34, 34, 34); opacity: 0.5;"></circle><circle cx="182.5098408424549" cy="123.60663971073639" r="1" stroke="none" style="fill: rgb(34, 34, 34); opacity: 0.5;"></circle><circle cx="151.3246738149836" cy="100.6766546074933" r="1" stroke="none" style="fill: rgb(34, 34, 34); opacity: 0.5;"></circle><circle cx="172.8628239340045" cy="154.67895296891655" r="1" stroke="none" style="fill: rgb(34, 34, 34); opacity: 0.5;"></circle><circle cx="152.62400287701493" cy="140.8581400299755" r="1" stroke="none" style="fill: rgb(34, 34, 34); opacity: 0.5;"></circle><circle cx="156.05455964782217" cy="130.85796978097346" r="1" stroke="none" style="fill: rgb(34, 34, 34); opacity: 0.5;"></circle><circle cx="148.23846636796986" cy="159.48942328175525" r="1" stroke="none" style="fill: rgb(34, 34, 34); opacity: 0.5;"></circle><circle cx="170.39498699289493" cy="82.63681634400969" r="1" stroke="none" style="fill: rgb(34, 34, 34); opacity: 0.5;"></circle><circle cx="147.1651632046709" cy="214.82860183045412" r="1" stroke="none" style="fill: rgb(34, 34, 34); opacity: 0.5;"></circle><circle cx="174.18777652312355" cy="135.19804213679947" r="1" stroke="none" style="fill: rgb(34, 34, 34); opacity: 0.5;"></circle><circle cx="148.04343663320412" cy="151.9776122581235" r="1" stroke="none" style="fill: rgb(34, 34, 34); opacity: 0.5;"></circle><circle cx="174.74112788941486" cy="114.10521387544003" r="1" stroke="none" style="fill: rgb(34, 34, 34); opacity: 0.5;"></circle><circle cx="161.72406093034078" cy="89.29440306459715" r="1" stroke="none" style="fill: rgb(34, 34, 34); opacity: 0.5;"></circle><circle cx="253.7164221873328" cy="125.03085762944434" r="1" stroke="none" style="fill: rgb(34, 34, 34); opacity: 0.5;"></circle><circle cx="243.15095410165836" cy="139.3879548841979" r="1" stroke="none" style="fill: rgb(34, 34, 34); opacity: 0.5;"></circle><circle cx="245.04259433294703" cy="134.0297084487792" r="1" stroke="none" style="fill: rgb(34, 34, 34); opacity: 0.5;"></circle><circle cx="258.50160944998083" cy="130.20600127703563" r="1" stroke="none" style="fill: rgb(34, 34, 34); opacity: 0.5;"></circle><circle cx="236.5747137811348" cy="142.03336880205623" r="1" stroke="none" style="fill: rgb(34, 34, 34); opacity: 0.5;"></circle><circle cx="251.29882012878622" cy="135.99710576736015" r="1" stroke="none" style="fill: rgb(34, 34, 34); opacity: 0.5;"></circle><circle cx="257.44966299920253" cy="134.0373696532908" r="1" stroke="none" style="fill: rgb(34, 34, 34); opacity: 0.5;"></circle><circle cx="238.76520223501754" cy="122.26975952346078" r="1" stroke="none" style="fill: rgb(34, 34, 34); opacity: 0.5;"></circle><circle cx="242.98649783572498" cy="122.108874228717" r="1" stroke="none" style="fill: rgb(34, 34, 34); opacity: 0.5;"></circle><circle cx="260.32569628116346" cy="119.96603532682018" r="1" stroke="none" style="fill: rgb(34, 34, 34); opacity: 0.5;"></circle><circle cx="224.53008619330842" cy="116.57671845088478" r="1" stroke="none" style="fill: rgb(34, 34, 34); opacity: 0.5;"></circle><circle cx="245.17591552414302" cy="131.30385188354904" r="1" stroke="none" style="fill: rgb(34, 34, 34); opacity: 0.5;"></circle><circle cx="247.95904352297353" cy="116.69776548216821" r="1" stroke="none" style="fill: rgb(34, 34, 34); opacity: 0.5;"></circle><circle cx="259.10926151136033" cy="151.49265801253873" r="1" stroke="none" style="fill: rgb(34, 34, 34); opacity: 0.5;"></circle><circle cx="254.79938008127735" cy="145.38284741453126" r="1" stroke="none" style="fill: rgb(34, 34, 34); opacity: 0.5;"></circle><circle cx="255.2618186806547" cy="132.69129602060127" r="1" stroke="none" style="fill: rgb(34, 34, 34); opacity: 0.5;"></circle><circle cx="231.91403867978102" cy="160.46316237518067" r="1" stroke="none" style="fill: rgb(34, 34, 34); opacity: 0.5;"></circle><circle cx="227.2477216057269" cy="100.37020642702899" r="1" stroke="none" style="fill: rgb(34, 34, 34); opacity: 0.5;"></circle><circle cx="252.77813544286556" cy="136.5341562036239" r="1" stroke="none" style="fill: rgb(34, 34, 34); opacity: 0.5;"></circle><circle cx="246.32069259333142" cy="113.32070653345131" r="1" stroke="none" style="fill: rgb(34, 34, 34); opacity: 0.5;"></circle><circle cx="244.29725936765232" cy="129.8834645670969" r="1" stroke="none" style="fill: rgb(34, 34, 34); opacity: 0.5;"></circle><circle cx="258.83103867200344" cy="113.11538625254025" r="1" stroke="none" style="fill: rgb(34, 34, 34); opacity: 0.5;"></circle><circle cx="234.80057534008702" cy="119.531645031012" r="1" stroke="none" style="fill: rgb(34, 34, 34); opacity: 0.5;"></circle><circle cx="260.9518580685161" cy="93.89572249426898" r="1" stroke="none" style="fill: rgb(34, 34, 34); opacity: 0.5;"></circle><circle cx="242.10742272866884" cy="147.07061076843854" r="1" stroke="none" style="fill: rgb(34, 34, 34); opacity: 0.5;"></circle><circle cx="232.87913261173708" cy="110.17731432233853" r="1" stroke="none" style="fill: rgb(34, 34, 34); opacity: 0.5;"></circle><circle cx="262.30522621853686" cy="76.29793573110514" r="1" stroke="none" style="fill: rgb(34, 34, 34); opacity: 0.5;"></circle><circle cx="226.1810431795744" cy="129.00855501187124" r="1" stroke="none" style="fill: rgb(34, 34, 34); opacity: 0.5;"></circle><circle cx="250.8243661736096" cy="149.56509895741812" r="1" stroke="none" style="fill: rgb(34, 34, 34); opacity: 0.5;"></circle><circle cx="232.7953259857609" cy="97.37620770389252" r="1" stroke="none" style="fill: rgb(34, 34, 34); opacity: 0.5;"></circle><circle cx="234.2960990433226" cy="129.58008086843722" r="1" stroke="none" style="fill: rgb(34, 34, 34); opacity: 0.5;"></circle><circle cx="242.91019179869133" cy="139.72887848496444" r="1" stroke="none" style="fill: rgb(34, 34, 34); opacity: 0.5;"></circle><circle cx="255.27516026621961" cy="127.45103213466132" r="1" stroke="none" style="fill: rgb(34, 34, 34); opacity: 0.5;"></circle><circle cx="257.57373769152565" cy="163.4418386892939" r="1" stroke="none" style="fill: rgb(34, 34, 34); opacity: 0.5;"></circle><circle cx="249.95105072325572" cy="94.20906575879374" r="1" stroke="none" style="fill: rgb(34, 34, 34); opacity: 0.5;"></circle><circle cx="241.00012147676978" cy="129.06678016615948" r="1" stroke="none" style="fill: rgb(34, 34, 34); opacity: 0.5;"></circle><circle cx="238.67222521206043" cy="112.94837199418717" r="1" stroke="none" style="fill: rgb(34, 34, 34); opacity: 0.5;"></circle><circle cx="243.27398308163654" cy="108.03677378179523" r="1" stroke="none" style="fill: rgb(34, 34, 34); opacity: 0.5;"></circle><circle cx="260.360492825533" cy="112.5354330710115" r="1" stroke="none" style="fill: rgb(34, 34, 34); opacity: 0.5;"></circle><circle cx="243.95174026010451" cy="124.66158757198478" r="1" stroke="none" style="fill: rgb(34, 34, 34); opacity: 0.5;"></circle><circle cx="226.4438115270984" cy="174.77352628241346" r="1" stroke="none" style="fill: rgb(34, 34, 34); opacity: 0.5;"></circle><circle cx="257.4684620372211" cy="134.7506277933215" r="1" stroke="none" style="fill: rgb(34, 34, 34); opacity: 0.5;"></circle><circle cx="234.19155021472127" cy="141.49248776353664" r="1" stroke="none" style="fill: rgb(34, 34, 34); opacity: 0.5;"></circle><circle cx="227.88396420783695" cy="109.12313258154124" r="1" stroke="none" style="fill: rgb(34, 34, 34); opacity: 0.5;"></circle><circle cx="252.36920956780514" cy="118.04920195801586" r="1" stroke="none" style="fill: rgb(34, 34, 34); opacity: 0.5;"></circle><circle cx="240.71600383695744" cy="129.1663758248104" r="1" stroke="none" style="fill: rgb(34, 34, 34); opacity: 0.5;"></circle><circle cx="241.17999896899585" cy="55.736795062851286" r="1" stroke="none" style="fill: rgb(34, 34, 34); opacity: 0.5;"></circle><circle cx="228.40052055243916" cy="179.30129814877384" r="1" stroke="none" style="fill: rgb(34, 34, 34); opacity: 0.5;"></circle><circle cx="248.16878136278302" cy="162.77991061949095" r="1" stroke="none" style="fill: rgb(34, 34, 34); opacity: 0.5;"></circle><circle cx="248.01644593010997" cy="115.10270270285139" r="1" stroke="none" style="fill: rgb(34, 34, 34); opacity: 0.5;"></circle><circle cx="241.57978303650697" cy="101.73313470964406" r="1" stroke="none" style="fill: rgb(34, 34, 34); opacity: 0.5;"></circle><circle cx="251.0223210859359" cy="116.54760587374065" r="1" stroke="none" style="fill: rgb(34, 34, 34); opacity: 0.5;"></circle><circle cx="259.30786983546847" cy="158.892615450301" r="1" stroke="none" style="fill: rgb(34, 34, 34); opacity: 0.5;"></circle><circle cx="226.23315738827029" cy="64.98923175152044" r="1" stroke="none" style="fill: rgb(34, 34, 34); opacity: 0.5;"></circle><circle cx="231.78757445819195" cy="95.22494147703297" r="1" stroke="none" style="fill: rgb(34, 34, 34); opacity: 0.5;"></circle><circle cx="230.182898596953" cy="114.22549478627225" r="1" stroke="none" style="fill: rgb(34, 34, 34); opacity: 0.5;"></circle><circle cx="234.76538587889183" cy="142.04486060882363" r="1" stroke="none" style="fill: rgb(34, 34, 34); opacity: 0.5;"></circle><circle cx="252.835589002752" cy="133.96765269223516" r="1" stroke="none" style="fill: rgb(34, 34, 34); opacity: 0.5;"></circle><circle cx="233.08222166905605" cy="116.78203873179585" r="1" stroke="none" style="fill: rgb(34, 34, 34); opacity: 0.5;"></circle><circle cx="250.29486015531938" cy="126.74466907869108" r="1" stroke="none" style="fill: rgb(34, 34, 34); opacity: 0.5;"></circle><circle cx="236.93156934484517" cy="195.9559906365587" r="1" stroke="none" style="fill: rgb(34, 34, 34); opacity: 0.5;"></circle><circle cx="226.7619334404173" cy="162.36620557586414" r="1" stroke="none" style="fill: rgb(34, 34, 34); opacity: 0.5;"></circle><circle cx="234.7396077824395" cy="204.93185784235874" r="1" stroke="none" style="fill: rgb(34, 34, 34); opacity: 0.5;"></circle><circle cx="255.2365425707492" cy="112.24660566092388" r="1" stroke="none" style="fill: rgb(34, 34, 34); opacity: 0.5;"></circle><circle cx="252.38332670491437" cy="68.94471164086369" r="1" stroke="none" style="fill: rgb(34, 34, 34); opacity: 0.5;"></circle><circle cx="239.68137311779557" cy="117.2838476273062" r="1" stroke="none" style="fill: rgb(34, 34, 34); opacity: 0.5;"></circle><circle cx="262.41953665683343" cy="127.9321557779903" r="1" stroke="none" style="fill: rgb(34, 34, 34); opacity: 0.5;"></circle><circle cx="237.05762354205402" cy="145.35603319874062" r="1" stroke="none" style="fill: rgb(34, 34, 34); opacity: 0.5;"></circle><circle cx="227.33660452028232" cy="152.9827622900465" r="1" stroke="none" style="fill: rgb(34, 34, 34); opacity: 0.5;"></circle><circle cx="228.2430079663575" cy="81.16816343913442" r="1" stroke="none" style="fill: rgb(34, 34, 34); opacity: 0.5;"></circle><circle cx="247.15473894801625" cy="80.5997020643731" r="1" stroke="none" style="fill: rgb(34, 34, 34); opacity: 0.5;"></circle><circle cx="236.11285142651968" cy="138.8286869548505" r="1" stroke="none" style="fill: rgb(34, 34, 34); opacity: 0.5;"></circle><circle cx="250.35167517625467" cy="120.68772079181369" r="1" stroke="none" style="fill: rgb(34, 34, 34); opacity: 0.5;"></circle><circle cx="240.6364902348668" cy="149.81102362224073" r="1" stroke="none" style="fill: rgb(34, 34, 34); opacity: 0.5;"></circle><circle cx="239.1493739690201" cy="174.69691423729734" r="1" stroke="none" style="fill: rgb(34, 34, 34); opacity: 0.5;"></circle><circle cx="243.9151030237541" cy="119.48950840619818" r="1" stroke="none" style="fill: rgb(34, 34, 34); opacity: 0.5;"></circle><circle cx="233.4855452680429" cy="53.737986805772756" r="1" stroke="none" style="fill: rgb(34, 34, 34); opacity: 0.5;"></circle><circle cx="233.187108125247" cy="72.2168120877715" r="1" stroke="none" style="fill: rgb(34, 34, 34); opacity: 0.5;"></circle><circle cx="235.6279281389289" cy="133.1149606300932" r="1" stroke="none" style="fill: rgb(34, 34, 34); opacity: 0.5;"></circle><circle cx="258.56420310358135" cy="168.52198340094122" r="1" stroke="none" style="fill: rgb(34, 34, 34); opacity: 0.5;"></circle></g></svg>